<?xml version='1.0' encoding='UTF-8' standalone='no'?>
<svg width="296.926mm" xmlns="http://www.w3.org/2000/svg" version="1.2" xmlns:xlink="http://www.w3.org/1999/xlink" viewBox="0 0 3507 2480" height="209.973mm" baseProfile="tiny">
 <defs/>
 <g stroke-linejoin="bevel" stroke="black" fill-rule="evenodd" fill="none" stroke-width="1" stroke-linecap="square">
  <g font-family="MS Shell Dlg 2" stroke-linejoin="bevel" stroke="#000000" fill="none" stroke-width="1" transform="matrix(1,0,0,1,0,0)" stroke-opacity="1" font-weight="400" stroke-linecap="square" font-size="32.8125" font-style="normal"/>
  <g font-family="MS Shell Dlg 2" stroke-linejoin="bevel" stroke="#000000" fill="none" stroke-width="1" transform="matrix(1,0,0,1,0,0)" stroke-opacity="1" font-weight="400" stroke-linecap="square" font-size="32.8125" font-style="normal"/>
  <g font-family="MS Shell Dlg 2" stroke-linejoin="bevel" stroke="#000000" fill="none" stroke-width="1" transform="matrix(11.8081,0,0,11.8081,0,0)" stroke-opacity="1" font-weight="400" stroke-linecap="square" font-size="32.8125" font-style="normal"/>
  <g font-family="MS Shell Dlg 2" stroke-linejoin="bevel" stroke="#000000" fill="none" stroke-width="1" transform="matrix(0.999751,0,0,0.999751,0,0)" stroke-opacity="1" font-weight="400" stroke-linecap="square" font-size="32.8125" font-style="normal"/>
  <g font-family="MS Shell Dlg 2" fill-opacity="1" stroke="none" fill="#ffffff" transform="matrix(0.999751,0,0,0.999751,0,0)" font-weight="400" font-size="32.8125" font-style="normal">
   <path fill-rule="evenodd" vector-effect="none" d="M-2,-2 L3510,-2 L3510,2483 L-2,2483 L-2,-2"/>
  </g>
  <g font-family="MS Shell Dlg 2" stroke-linejoin="bevel" stroke="#000000" fill="none" stroke-width="1" transform="matrix(0.999751,0,0,0.999751,0,0)" stroke-opacity="1" font-weight="400" stroke-linecap="square" font-size="32.8125" font-style="normal"/>
  <g font-family="MS Shell Dlg 2" stroke-linejoin="bevel" stroke="#000000" fill="none" stroke-width="1" transform="matrix(11.8081,0,0,11.8081,0,0)" stroke-opacity="1" font-weight="400" stroke-linecap="square" font-size="32.8125" font-style="normal"/>
  <g font-family="MS Shell Dlg 2" stroke-linejoin="bevel" stroke="#000000" fill="none" stroke-width="1" transform="matrix(11.8081,0,0,11.8081,0,0)" stroke-opacity="1" font-weight="400" stroke-linecap="square" font-size="32.8125" font-style="normal"/>
  <g font-family="MS Shell Dlg 2" stroke-linejoin="bevel" stroke="#000000" fill="none" stroke-width="1" transform="matrix(11.8081,0,0,11.8081,0,0)" stroke-opacity="1" font-weight="400" stroke-linecap="square" font-size="32.8125" font-style="normal"/>
  <g font-family="MS Shell Dlg 2" stroke-linejoin="bevel" stroke="#000000" fill="none" stroke-width="1" transform="matrix(11.8081,0,0,11.8081,0,0)" stroke-opacity="1" font-weight="400" stroke-linecap="square" font-size="32.8125" font-style="normal"/>
  <g font-family="MS Shell Dlg 2" stroke-linejoin="bevel" stroke="#000000" fill="none" stroke-width="1" transform="matrix(11.8081,0,0,11.8081,339.713,120.859)" stroke-opacity="1" font-weight="400" stroke-linecap="square" font-size="32.8125" font-style="normal"/>
  <g font-family="MS Shell Dlg 2" fill-opacity="1" stroke="none" fill="#ffffff" transform="matrix(11.8081,0,0,11.8081,339.713,120.859)" font-weight="400" font-size="32.8125" font-style="normal">
   <rect width="212.452" x="0" y="0" height="191.981"/>
  </g>
  <g font-family="MS Shell Dlg 2" stroke-linejoin="bevel" stroke="#000000" fill="none" stroke-width="1" transform="matrix(11.8081,0,0,11.8081,339.713,120.859)" stroke-opacity="1" font-weight="400" stroke-linecap="square" font-size="32.8125" font-style="normal"/>
  <g font-family="MS Shell Dlg 2" stroke-linejoin="bevel" stroke="#000000" fill="none" stroke-width="1" transform="matrix(11.8081,0,0,11.8081,339.713,120.859)" stroke-opacity="1" font-weight="400" stroke-linecap="square" font-size="32.8125" font-style="normal"/>
  <g font-family="MS Shell Dlg 2" fill-opacity="0" stroke="none" fill="#000000" transform="matrix(0.999751,0,0,0.999751,339.713,120.859)" font-weight="400" font-size="32.8125" font-style="normal">
   <rect width="2509" x="0" y="0" height="2267"/>
  </g>
  <g font-family="MS Shell Dlg 2" fill-opacity="1" stroke-linejoin="bevel" stroke="#232323" fill="#d1d1d1" stroke-width="3.07087" transform="matrix(0.999751,0,0,0.999751,339.713,120.859)" stroke-opacity="1" font-weight="400" stroke-linecap="square" font-size="32.8125" font-style="normal">
   <path fill-rule="evenodd" vector-effect="none" d="M1006.24,1043.41 L1002.58,1054.54 L1003.78,1068.63 L1005.52,1072.01 L1007.09,1077.21 L1007.51,1079.21 L1010.52,1095.52 L1012.09,1106.16 L1014.14,1131.09 L1005.95,1156.99 L1005.34,1158.57 L1003.68,1159.71 L997.058,1171.82 L991.048,1187.32 L990.743,1194.44 L991.006,1197.7 L991.804,1201.51 L993.42,1206.85 L994.151,1208.47 L996.799,1213.85 L1004.78,1229.97 L1006.45,1231.63 L1017.8,1238.38 L1055.54,1262.85 L1063.54,1269.17 L1081.34,1290.36 L1082.56,1292.12 L1083.38,1293.79 L1083.88,1295.42 L1082.97,1306.54 L1069.88,1307.19 L1065.28,1306.47 L1064.03,1306.44 L1062.02,1307.1 L1054.33,1312.04 L1053.71,1313.77 L1053.68,1315.17 L1054.21,1320.1 L1054.09,1321.73 L1053.43,1323.55 L1051.49,1326.96 L1028.16,1361.53 L1026,1364.67 L1015.44,1375.88 L1011.19,1379.55 L1006.59,1383.13 L1005.49,1384.35 L1004.84,1386.17 L1004.81,1388.73 L1005.07,1392.18 L1005.58,1394.03 L1006.92,1395.46 L1008.27,1396.66 L1011.01,1398.55 L1012.49,1399.88 L1013.71,1401.41 L1017.04,1405.85 L1020.24,1410.66 L1038.96,1440.29 L1041.85,1445.2 L1042.48,1446.82 L1045.23,1456.25 L1047.69,1464.37 L1050.6,1472.87 L1051.6,1474.53 L1053.16,1475.92 L1053.83,1476.29 L1057.39,1477.33 L1059.13,1478.29 L1069.36,1485.71 L1070.7,1486.91 L1071.24,1487.74 L1071.69,1489.6 L1073.07,1502.44 L1072.9,1503.46 L1072.41,1504.26 L1064.68,1515.33 L1060.06,1506.49 L1058.81,1505.85 L1052.91,1506.59 L1049.82,1508.38 L1049.43,1509.5 L1049.31,1510.9 L1048.21,1512.35 L1045.52,1514.01 L1038.17,1516.35 L1036.4,1516.87 L1034.06,1517.13 L1031.66,1516.96 L1030.5,1516.6 L1024.22,1513.77 L1022.48,1512.9 L1019.31,1510.51 L1016.21,1506.3 L1015.79,1504.35 L1009.44,1494.82 L1008.1,1493.43 L990.946,1487.64 L989.39,1487.47 L980.594,1487.24 L978.645,1487.67 L972.281,1490.81 L970.648,1491.72 L960.291,1498.91 L958.84,1500.23 L955.985,1502.91 L950.54,1508.28 L950.343,1510.47 L951.892,1513.99 L952.588,1516.64 L952.604,1518.03 L951.731,1519.26 L949.686,1518.86 L930.703,1508.7 L920.817,1502.68 L919.397,1495.85 L918.617,1493.76 L903.76,1476.35 L896.288,1471.28 L882.712,1460.42 L868.533,1445.21 L860.366,1434.28 L855.924,1428.85 L845.404,1419.13 L829.102,1407.63 L817.792,1402.5 L814.29,1403.76 L809.849,1404.9 L808.235,1404.32 L799.462,1393.93 L796.805,1389.6 L794.943,1386.09 L794.675,1384.69 L792.117,1383.8 L790.953,1383.54 L786.435,1382.87 L782.057,1382.52 L776.447,1383.18 L773.334,1383.88 L771.556,1384.29 L768.234,1385.69 L765.056,1387.7 L760.564,1391.14 L755.332,1395.52 L749.493,1400.79 L747.386,1402.69 L744.307,1405.03 L742.63,1406.04 L741.567,1406.48 L739.208,1406.76 L736.927,1406.33 L724.999,1405.34 L703.119,1406.45 L697.871,1407.26 L696.787,1404.34 L695.944,1402.35 L687.36,1383.41 L686.386,1381.65 L685.508,1380.13 L683.894,1377.55 L675.965,1367.41 L671.794,1362.22 L668.083,1357.64 L665.256,1354.89 L660.242,1350.24 L657.88,1348.33 L653.667,1345.67 L650.777,1344.33 L639.969,1336.53 L639.197,1335.94 L637.685,1334.62 L639.368,1333.42 L641.709,1332.06 L653.525,1325.71 L662.838,1320.73 L652.451,1272.71 L651.583,1269.7 L647.236,1263.12 L640.428,1254.63 L630.094,1240.76 L629.569,1239.23 L630.074,1237.63 L641.029,1215.54 L642.518,1213.64 L644.028,1212.77 L649.596,1212.8 L660.64,1212.54 L662.472,1212.13 L664.259,1211.68 L667.908,1209.93 L669.672,1208.27 L671.388,1206.37 L673.204,1202.6 L673.931,1200.77 L674.346,1198.95 L676.783,1177.92 L677.432,1171.71 L676.774,1170.18 L671.846,1161.51 L667.9,1140.51 L666.627,1125.24 L665.949,1122.69 L652.621,1098.93 L650.618,1095.52 L645.391,1090.77 L644.99,1088.68 L643.579,1045.84 L645.363,1041.25 L651.017,1034.53 L652.789,1032.58 L656.162,1029.44 L657.81,1028.16 L664.885,1023.24 L673.272,1031.93 L691.438,1048.72 L693.035,1049.81 L694.732,1051.32 L704.719,1060.29 L711.85,1068.79 L712.868,1070.31 L714.275,1073.55 L716.047,1079.86 L717.463,1083.56 L718.209,1085.09 L722.583,1090.75 L726.727,1096.08 L729.66,1099.16 L754.98,1125.44 L758.487,1128.09 L765.217,1132.78 L774.57,1138.46 L779.011,1140.68 L786.7,1143.64 L790.631,1144.93 L794.874,1146.08 L808.718,1149.09 L814.343,1149.71 L820.054,1149.9 L825.979,1149.36 L833.188,1147.39 L845.59,1143.83 L859.78,1139.59 L884.18,1131.65 L892.225,1127.65 L897.496,1124.79 L899.277,1123.33 L900.968,1121.77 L902.029,1120.18 L904.258,1114.61 L912.087,1090.5 L912.075,1089.48 L910.551,1086 L910.128,1084.38 L910.384,1083.12 L910.952,1081.48 L916.237,1070.62 L924.578,1054.71 L936.864,1053.56 L990.176,1046.45 L1003.13,1044.2 L1006.24,1043.41 L1006.24,1043.41"/>
   <path fill-rule="evenodd" vector-effect="none" d="M903.76,1476.35 L918.617,1493.76 L919.397,1495.85 L920.817,1502.68 L930.703,1508.7 L949.686,1518.86 L951.731,1519.26 L952.604,1518.03 L952.588,1516.64 L951.892,1513.99 L950.343,1510.47 L950.54,1508.28 L955.985,1502.91 L958.84,1500.23 L960.291,1498.91 L970.648,1491.72 L972.281,1490.81 L978.645,1487.67 L980.594,1487.24 L989.39,1487.47 L990.946,1487.64 L1008.1,1493.43 L1009.44,1494.82 L1015.79,1504.35 L1016.21,1506.3 L1019.31,1510.51 L1022.48,1512.9 L1024.22,1513.77 L1030.5,1516.6 L1031.66,1516.96 L1034.06,1517.13 L1036.4,1516.87 L1038.17,1516.35 L1045.52,1514.01 L1048.21,1512.35 L1049.31,1510.9 L1049.43,1509.5 L1049.82,1508.38 L1052.91,1506.59 L1058.81,1505.85 L1060.06,1506.49 L1064.68,1515.33 L1068.21,1517.04 L1069.2,1518.66 L1069.49,1522.01 L1069.41,1523.73 L1068.99,1526.16 L1068.83,1528.58 L1069.46,1530.53 L1073.53,1540.88 L1074.47,1542.41 L1075.45,1543.56 L1097.86,1568.73 L1112.34,1584.51 L1117.07,1597.88 L1118.67,1599.41 L1120.4,1599.82 L1125.44,1600.49 L1127.08,1600.57 L1128.85,1600.38 L1130.43,1599.3 L1132.1,1597.85 L1133.42,1596.12 L1134.56,1593.88 L1135.08,1591.92 L1135.82,1588.61 L1135.9,1587.03 L1135.93,1585.4 L1135.79,1583.54 L1135.47,1581.59 L1135.77,1580 L1137.18,1578.32 L1138.95,1577.57 L1161.09,1578.15 L1160.65,1582.77 L1159.76,1590.22 L1157.91,1602.7 L1156.92,1608.85 L1156.89,1613.36 L1159.94,1652.86 L1163.25,1694.68 L1163.65,1705.24 L1163.29,1714.32 L1163.57,1728.33 L1163.76,1730.42 L1164.16,1732.14 L1164.78,1733.91 L1166.34,1736.92 L1168.42,1741.57 L1168.7,1743.52 L1170.02,1754.45 L1169.73,1760.23 L1169.9,1767.44 L1172.07,1804.38 L1172.44,1810.48 L1172.76,1812.43 L1174.25,1813.4 L1176.19,1813.81 L1196.81,1815.97 L1198.87,1815.92 L1200.4,1815.17 L1213.1,1806.11 L1229.84,1815.52 L1230.93,1816.59 L1232.43,1817.42 L1234.4,1817.93 L1286.94,1818.08 L1313.03,1818.01 L1318.82,1817.97 L1370.88,1817.54 L1399.92,1817.24 L1405.67,1817.32 L1394.46,1832.48 L1394.67,1842.49 L1394.98,1862.65 L1395.1,1874.14 L1395.44,1905.93 L1392.73,1906.06 L1355.14,1906.11 L1340.67,1906.11 L1291.46,1906.18 L1274.46,1906.18 L1141.37,1905.86 L1126.9,1905.75 L1124.11,1905.54 L1115.09,1898.38 L1111.34,1893 L1110.2,1891.8 L1094.21,1888.1 L1092.74,1891.37 L1092.41,1893.42 L1092.3,1896.63 L1092.35,1897.65 L1093.01,1910.22 L1090.89,1923.83 L1090.72,1924.85 L1090.08,1926.53 L1089.08,1927.89 L1087.96,1929.11 L1085.78,1930.38 L1085,1930.67 L1066.17,1929.56 L1064.2,1929.12 L1062.53,1928.48 L1044.11,1921.06 L1031.82,1910.23 L1028.06,1905.89 L1020.49,1897.36 L1019.57,1897.09 L1011.2,1894.99 L1010.06,1894.95 L1009.14,1895.1 L1008.4,1895.53 L1007.8,1896.09 L1007.32,1896.75 L1003.69,1904.66 L1002.76,1907.23 L1002.43,1909.28 L1002.77,1912.31 L1002.47,1913.24 L1000.44,1919.46 L1000.06,1920.25 L998.979,1921.47 L997.503,1922.33 L992.616,1922.99 L989.55,1922.37 L985.063,1919.86 L980.38,1915.54 L978.294,1913.01 L952.066,1900.01 L939.707,1898.41 L938.791,1898.61 L938.276,1899.27 L937.169,1901.61 L936.876,1902.54 L936.554,1904.6 L936.611,1905.62 L936.264,1915.41 L935.108,1929.86 L932.722,1953.14 L929.651,1976.8 L928.481,1998.04 L928.108,1996.89 L926.787,1995.89 L913.432,1985.97 L896.387,1969.51 L894.743,1967.72 L893.763,1966.38 L890.916,1960.14 L890.004,1957.68 L889.849,1953.45 L890.083,1929.27 L890.311,1924.18 L890.921,1921.24 L895.263,1907.85 L896.668,1885.14 L896.74,1883.98 L897.101,1881.92 L904.616,1859.92 L908.064,1852.83 L908.58,1852.17 L910.879,1847.44 L913.091,1842.61 L914.444,1839.19 L916.712,1832.08 L916.859,1829.98 L916.626,1829.05 L910.582,1805.05 L908.258,1796.19 L907.241,1792.57 L905.224,1786.73 L904.526,1784.04 L904.003,1781.26 L903.943,1780.23 L904.07,1776.78 L904.393,1774.73 L911.366,1748.22 L911.974,1747.65 L920.826,1741.62 L922.965,1740.24 L926.161,1738.89 L934.459,1737.11 L939.247,1736.3 L941.27,1736.04 L943.428,1736.06 L947.74,1735.91 L950.774,1735.6 L951.695,1735.4 L955.949,1734 L956.738,1733.66 L972.137,1725.1 L978.567,1721.25 L981.929,1718.75 L983.718,1717.1 L994.823,1705.1 L996.432,1703.23 L998.433,1700.55 L999.43,1699.1 L1001.78,1695.63 L1003.6,1692.72 L1003.81,1692.16 L1003.87,1691.51 L993.364,1676.61 L992.833,1675.95 L988.534,1661.18 L989.172,1654.88 L988.93,1652.88 L983.773,1641.16 L982.919,1639.63 L976.042,1633.52 L975.41,1632.98 L972.779,1632.12 L963.763,1631.67 L960.735,1631.98 L958.272,1632.93 L955.421,1634.73 L953.657,1636.43 L952.748,1636.67 L939.748,1635.94 L938.562,1635.84 L936.985,1635.3 L913.16,1624.57 L910.141,1622.79 L901.364,1617.53 L900.241,1616.31 L899.958,1615.51 L898.79,1611.09 L881.842,1590.11 L878.043,1586.7 L874.866,1578.32 L874.173,1576.33 L874.287,1574.93 L880.758,1562.77 L878.72,1544.03 L878.621,1543.24 L879.172,1541.51 L879.738,1540.71 L884.729,1536.12 L885.563,1535.46 L888.865,1533.46 L889.696,1532.8 L890.788,1531.34 L892.17,1528.71 L892.512,1527.68 L892.7,1525.16 L892.462,1524 L891.947,1522.15 L890.466,1520.82 L887.88,1519.97 L862.746,1516.27 L858.522,1494.63 L851.809,1479.21 L852.903,1466.11 L886.897,1473.92 L897.615,1477.69 L899.89,1478.22 L901.046,1478.25 L901.843,1478.01 L903.76,1476.35 L903.76,1476.35"/>
   <path fill-rule="evenodd" vector-effect="none" d="M631.882,466.894 L633.638,465.294 L635.305,463.499 L636.519,461.803 L636.72,459.889 L636.647,458.165 L634.273,449.344 L636.297,433.979 L640.847,418.487 L641.281,416.756 L641.644,413.209 L641.206,411.444 L636.563,397.853 L635.941,396.091 L630.724,387.308 L633.105,360.8 L634.3,357.614 L636.033,356.658 L650.247,351.477 L657.569,349.561 L665.787,342.323 L664.379,332.881 L664.121,330.695 L667.769,314.338 L669.055,310.734 L670.642,309.036 L672.288,308.409 L681.459,306.662 L683.112,306.362 L684.719,306.296 L686.469,306.46 L707.38,306.484 L732.107,290.871 L738.921,283.621 L748.685,264.418 L748.891,262.273 L751.648,249.157 L768.321,229.144 L769.14,209.997 L768.222,210.239 L767.164,210.39 L766.196,210.167 L765.501,209.708 L765.033,209.015 L764.929,207.991 L765.337,207.288 L766.022,206.816 L777.411,199.437 L779.841,198.389 L782.05,198.228 L784.956,198.804 L792.61,200.406 L802.615,197.145 L820.336,181.852 L822.21,180.113 L838.753,160.418 L859.054,147.869 L861.115,146.456 L863.075,143.741 L864.568,140.611 L867.532,136.492 L869.862,134.147 L871.099,133.113 L872.611,132.264 L882.057,130.929 L882.898,133.767 L882.767,134.839 L881.91,137.358 L881.549,138.198 L880.321,140.395 L877.164,143.119 L874.319,143.683 L873.257,145.348 L875.144,167.707 L875.529,169.705 L883.478,191.609 L892.1,205.783 L893.258,206.891 L894.671,208.91 L895.923,212.455 L898.563,226.907 L898.586,229.932 L898.363,230.818 L897.454,232.267 L891.602,242.178 L883.405,257.555 L882.054,260.964 L883.7,277.146 L884.412,279.932 L891.237,300.261 L895.794,312.957 L897.232,315.012 L898.437,316.165 L899.129,316.625 L899.956,316.944 L902.16,317.02 L906.239,316.383 L909.135,316.918 L910.01,317.284 L910.702,317.744 L911.858,318.852 L912.37,319.546 L921.202,334.741 L920.935,335.674 L918.004,342.211 L915.979,347.113 L914.637,351.498 L915.773,356.235 L917.302,358.224 L918.594,359.238 L922.006,361.631 L924.717,362.402 L925.762,361.091 L927.014,350.891 L927.781,349.349 L929.088,348.218 L930.116,348.634 L930.715,349.234 L938.761,358.155 L939.086,358.944 L942.132,367.716 L943.502,379.757 L946.681,394.53 L948.124,397.777 L950.896,400.874 L953.329,401.88 L966.669,403.322 L975.506,403.169 L977.705,403.294 L980.55,403.926 L981.33,404.293 L983.446,405.629 L984.554,406.877 L988.64,415.644 L992.214,423.484 L992.586,424.272 L993.14,424.873 L1011.96,434.108 L1013.57,434.796 L1028.92,439.545 L1029.98,439.632 L1032.56,459.993 L1033.02,460.688 L1045.29,472.809 L1048.05,475.038 L1049.79,476.227 L1053.27,477.325 L1066.41,479.559 L1075.36,479.031 L1085.65,480.053 L1106.64,484.058 L1107.46,484.381 L1108.61,485.539 L1110.04,487.58 L1110.63,488.182 L1112.19,488.967 L1124.53,490.642 L1125.58,490.731 L1128.06,489.762 L1131.37,487.083 L1135.97,481.255 L1142.22,477.932 L1147.97,475.543 L1168.63,477.253 L1200.88,492.901 L1202.44,494.898 L1202.83,496.74 L1202.81,499.595 L1210.86,507.859 L1214.31,510.277 L1224.71,516.117 L1226.85,516.407 L1237.63,516.754 L1239.5,516.287 L1241.33,514.658 L1243.52,512.191 L1244.89,511.26 L1252.33,506.976 L1256.71,504.875 L1257.8,504.716 L1266.85,507.156 L1268.17,508.18 L1268.63,508.876 L1268.94,511.017 L1268.79,514.17 L1269.09,516.177 L1270.69,522.733 L1271.51,524.221 L1280.14,538.851 L1283.49,541.122 L1296.15,549.057 L1304.82,556.103 L1316.98,566.743 L1328.57,560.337 L1329.55,560.066 L1330.53,560.2 L1332.8,561.489 L1337.12,565.278 L1337.59,565.929 L1337.59,567.045 L1336.95,569.835 L1337.11,570.952 L1337.63,571.463 L1374.48,588.045 L1380.13,590.287 L1388.97,590.636 L1397.82,589.962 L1400.58,589.059 L1402.43,587.604 L1403.84,586.678 L1406.72,586.035 L1409.68,586.37 L1423.25,590.834 L1424.89,591.537 L1425.14,592.291 L1425.23,596.701 L1429.14,611.459 L1442.7,626.721 L1447.54,628.952 L1448.46,630.375 L1449.79,631.401 L1452.2,632.388 L1454.01,635.28 L1458,639.391 L1459.53,640.197 L1461.38,640.679 L1463.07,641.317 L1463.63,641.881 L1463.99,642.74 L1464.59,646.684 L1467.35,654.458 L1468.87,656.321 L1470.2,657.402 L1472.58,657.542 L1474.1,658.081 L1476.16,657.71 L1480.31,656.056 L1482.5,655.881 L1486.76,656.253 L1487.64,656.093 L1490.01,655.008 L1492.94,654.393 L1496.9,652.514 L1499,652.246 L1501.23,652.352 L1505.87,652.284 L1507.87,651.924 L1509.62,651.332 L1461.51,678.061 L1443.45,689.425 L1401.45,712.854 L1350.05,741.888 L1304.18,768.016 L1274.6,785.821 L1245.41,802.812 L1183.44,838.548 L1164.53,844.555 L1144.3,850.066 L1120.21,855.232 L1122.24,856.992 L1123.3,860.709 L1126.28,871.72 L1126.93,875.346 L1126.85,876.928 L1123.97,912.062 L1123.34,913.646 L1123.4,915.74 L1127.38,926.422 L1137.81,949.545 L1138.77,951.17 L1151.76,971.356 L1152.98,973.212 L1168.62,996.79 L1170.07,998.553 L1177.76,1005.93 L1179.88,1007.69 L1181.5,1007.78 L1197.48,1016.06 L1199.42,1017.27 L1201.14,1018.7 L1207.33,1028.64 L1208.05,1030.27 L1208.12,1039.85 L1208.35,1041.44 L1209.07,1042.97 L1215.03,1049.14 L1216.6,1050.07 L1218.59,1050.95 L1220.79,1051.46 L1214,1053.7 L1182.53,1052.24 L1154.08,1051.08 L1098.91,1049 L1052.07,1047.58 L1046.03,1047.45 L1035.68,1047.21 L1019.23,1046.26 L1010.16,1044.52 L1006.24,1043.41 L1003.13,1044.2 L990.176,1046.45 L936.864,1053.56 L924.578,1054.71 L916.237,1070.62 L910.952,1081.48 L910.384,1083.12 L910.128,1084.38 L910.551,1086 L912.075,1089.48 L912.087,1090.5 L904.258,1114.61 L902.029,1120.18 L900.968,1121.77 L899.277,1123.33 L897.496,1124.79 L892.225,1127.65 L884.18,1131.65 L859.78,1139.59 L845.59,1143.83 L833.188,1147.39 L825.979,1149.36 L820.054,1149.9 L814.343,1149.71 L808.718,1149.09 L794.874,1146.08 L790.631,1144.93 L786.7,1143.64 L779.011,1140.68 L774.57,1138.46 L765.217,1132.78 L758.487,1128.09 L754.98,1125.44 L729.66,1099.16 L726.727,1096.08 L722.583,1090.75 L718.209,1085.09 L717.463,1083.56 L716.047,1079.86 L714.275,1073.55 L712.868,1070.31 L711.85,1068.79 L704.719,1060.29 L694.732,1051.32 L693.035,1049.81 L691.438,1048.72 L673.272,1031.93 L664.885,1023.24 L660.437,1018.64 L655.012,1013.38 L643.256,1003.01 L621.306,979.874 L619.47,978.557 L617.512,977.801 L614.329,977.022 L612.594,976.169 L611.015,973.914 L609.274,970.449 L609.101,968.587 L607.644,951.453 L600.562,938.67 L593.735,927.421 L584.87,914.206 L583.519,912.32 L581.808,910.674 L580.111,909.587 L578.021,909.395 L576.029,909.574 L574.184,910.216 L572.329,910.486 L570.017,910.438 L568.285,910.006 L560.841,905.069 L559.399,903.185 L556.852,896.051 L556.367,892.236 L556.326,890.184 L556.611,888.452 L558.486,880.064 L558.996,878.374 L559.367,874.215 L558.417,867.376 L557.56,865.387 L555.619,863.699 L550.867,859.874 L545.556,855.361 L543.976,853.573 L542.76,851.918 L541.866,850.256 L540.384,846.646 L537.344,836.785 L537.344,817.22 L533.799,791.954 L539.941,775.645 L539.401,773.695 L537.667,759.312 L536.458,741.513 L542.28,702.493 L545.561,692.542 L546.215,690.944 L547.553,689.286 L551.011,688.803 L552.712,687.139 L566.227,667.49 L566.942,664.166 L564.504,663.09 L562.766,662.888 L561.062,661.939 L560.339,659.806 L557.036,643.679 L556.962,642.048 L557.248,640.224 L558.555,636.563 L567.705,621.896 L569.503,620.232 L571.406,619.266 L574.897,617.853 L576.606,616.285 L588.552,601.346 L597.081,589.314 L611.41,576.632 L613.151,577.023 L614.487,574.671 L617.646,563.572 L627.68,526.215 L631.497,509.329 L631.058,507.564 L628.552,496.088 L629.469,471.602 L629.625,469.875 L630.198,468.282 L631.882,466.894 L631.882,466.894"/>
   <path fill-rule="evenodd" vector-effect="none" d="M344.475,492.277 L350.295,491.725 L374.787,479.435 L376.098,478.427 L377.266,477.188 L378.249,475.954 L381.573,469.999 L383.115,466.791 L385.549,460.062 L387.327,452.505 L388.218,451.179 L390.467,448.799 L393.136,446.737 L394.861,445.629 L396.501,444.988 L398.046,444.117 L405.396,439.302 L406.42,437.741 L407.396,435.901 L407.72,433.746 L407.282,430.018 L406.928,426.102 L406.921,420.919 L407.061,418.628 L407.746,416.092 L408.405,414.492 L409.977,412.593 L411.79,411.298 L414.017,409.994 L418.023,407.91 L421.676,406.533 L423.687,405.935 L430.917,404.212 L442.025,400.831 L443.849,400.05 L446.991,398.452 L454.49,393.741 L456.807,389.779 L457.079,388.615 L476.15,397.042 L497.824,406.884 L527.064,419.731 L554.933,431.494 L581.44,442.497 L621.479,461.232 L631.882,466.894 L630.198,468.282 L629.625,469.875 L629.469,471.602 L628.552,496.088 L631.058,507.564 L631.497,509.329 L627.68,526.215 L617.646,563.572 L614.487,574.671 L613.151,577.023 L611.41,576.632 L597.081,589.314 L588.552,601.346 L576.606,616.285 L574.897,617.853 L571.406,619.266 L569.503,620.232 L567.705,621.896 L558.555,636.563 L557.248,640.224 L556.962,642.048 L557.036,643.679 L560.339,659.806 L561.062,661.939 L562.766,662.888 L564.504,663.09 L566.942,664.166 L566.227,667.49 L552.712,687.139 L551.011,688.803 L547.553,689.286 L546.215,690.944 L545.561,692.542 L542.28,702.493 L536.458,741.513 L537.667,759.312 L539.401,773.695 L539.941,775.645 L533.799,791.954 L537.344,817.22 L537.344,836.785 L540.384,846.646 L541.866,850.256 L542.76,851.918 L543.976,853.573 L545.556,855.361 L550.867,859.874 L555.619,863.699 L557.56,865.387 L558.417,867.376 L559.367,874.215 L558.996,878.374 L558.486,880.064 L556.611,888.452 L556.326,890.184 L556.367,892.236 L556.852,896.051 L559.399,903.185 L560.841,905.069 L568.285,910.006 L570.017,910.438 L572.329,910.486 L574.184,910.216 L576.029,909.574 L578.021,909.395 L580.111,909.587 L581.808,910.674 L583.519,912.32 L584.87,914.206 L593.735,927.421 L600.562,938.67 L607.644,951.453 L609.101,968.587 L609.274,970.449 L611.015,973.914 L612.594,976.169 L614.329,977.022 L617.512,977.801 L619.47,978.557 L621.306,979.874 L643.256,1003.01 L655.012,1013.38 L660.437,1018.64 L664.885,1023.24 L657.81,1028.16 L656.162,1029.44 L652.789,1032.58 L651.017,1034.53 L645.363,1041.25 L643.579,1045.84 L644.99,1088.68 L645.391,1090.77 L650.618,1095.52 L652.621,1098.93 L665.949,1122.69 L666.627,1125.24 L667.9,1140.51 L671.846,1161.51 L676.774,1170.18 L677.432,1171.71 L676.783,1177.92 L674.346,1198.95 L673.931,1200.77 L673.204,1202.6 L671.388,1206.37 L669.672,1208.27 L667.908,1209.93 L664.259,1211.68 L662.472,1212.13 L660.64,1212.54 L649.596,1212.8 L644.028,1212.77 L642.518,1213.64 L641.029,1215.54 L630.074,1237.63 L629.569,1239.23 L630.094,1240.76 L640.428,1254.63 L647.236,1263.12 L651.583,1269.7 L652.451,1272.71 L662.838,1320.73 L653.525,1325.71 L641.709,1332.06 L639.368,1333.42 L637.685,1334.62 L636.557,1333.8 L633.818,1331.3 L628.862,1325.48 L626.513,1322.31 L624.446,1317.74 L622.78,1315.16 L620.852,1313.01 L618.438,1311.1 L616.941,1310.25 L613.707,1309.71 L612.452,1309.69 L607.995,1310.63 L605.858,1311.24 L595.581,1314.31 L586.973,1317.91 L565.6,1330.95 L563.924,1332.06 L561.546,1333.75 L559.171,1335.53 L546.447,1346.29 L538.394,1351.99 L532.49,1355.73 L525.481,1360.06 L519.67,1363.85 L517.299,1365.63 L515.022,1367.56 L514.805,1367.8 L514.554,1368.46 L514.641,1370.18 L515.835,1373.14 L518.062,1376.31 L518.489,1377.23 L519.057,1378.52 L519.478,1380.98 L518.697,1383.71 L516.999,1387.26 L515.64,1388.37 L513.04,1389.83 L510.953,1390.35 L507.948,1390.01 L505.412,1388.81 L501.497,1386.07 L494.464,1380.56 L483.418,1372.16 L480.635,1370.22 L473.9,1366.01 L472.043,1365.18 L451.8,1356.76 L449.862,1356.25 L445.444,1355.2 L443.021,1355.13 L431.601,1355.21 L421.35,1355.41 L412.676,1356.07 L406.733,1356.62 L401.483,1357.89 L399.128,1358.61 L396.296,1359.82 L390.771,1362.46 L386.408,1364.92 L384.344,1366.34 L381.067,1369.15 L377.909,1372.89 L375.402,1375.96 L368.354,1385.75 L367.151,1387.47 L366.687,1388.38 L364.227,1391.44 L362.233,1393.56 L358.75,1396.85 L348.058,1405.74 L344.863,1408.08 L339.768,1411.19 L335.139,1413.39 L329.956,1415.1 L323.519,1416.81 L321.294,1417.21 L317.174,1418.51 L315.185,1419.28 L313.419,1420.03 L307.267,1423.56 L304.296,1425.41 L295.745,1424.41 L293.852,1424 L269.8,1417.23 L269.069,1416.79 L267.868,1415.7 L267.095,1414.09 L266.112,1411.55 L264.961,1408.03 L263.777,1402.17 L263.976,1392.24 L263.813,1390.05 L263.558,1389.12 L262.831,1387.51 L261.717,1385.11 L257.431,1377.72 L254.009,1374.7 L236.133,1359.91 L234.935,1359.06 L232.778,1338.06 L232.191,1324.88 L231.826,1316.79 L226.392,1311.73 L216.834,1303.2 L206.214,1302.22 L211.828,1289.79 L215.881,1284.6 L224.497,1275.78 L226.471,1274.26 L234.712,1268.93 L235.467,1268.58 L236.324,1268.69 L238.308,1270.12 L239.116,1270 L245.421,1264.64 L248.251,1261.65 L248.678,1260.93 L258.264,1239.98 L258.738,1239.26 L278.576,1214.01 L290.581,1202.83 L292.416,1202.35 L294.016,1201.6 L299.905,1198.1 L302.074,1196.77 L306.18,1193.88 L307.272,1192.73 L308.635,1190.47 L307.75,1189.27 L305.474,1186.94 L304.783,1186.44 L303.754,1185.26 L303.325,1184.43 L302.684,1182.67 L301.883,1175.58 L301.728,1173.39 L302.6,1161.9 L309.368,1152.72 L333.463,1141.4 L335.781,1140.44 L336.312,1138.46 L336.121,1136.46 L335.911,1135.44 L335.522,1134.51 L334.798,1132.9 L334.329,1132.25 L333.123,1131.12 L331.827,1130.08 L313.263,1117.66 L312.525,1117.22 L311.704,1116.92 L310.527,1116.9 L300.276,1117.16 L299.239,1117.28 L298.437,1117.68 L296.729,1119.46 L295.819,1120.84 L295.111,1121.33 L294.075,1121.46 L285.095,1120.42 L283.183,1120.01 L282.405,1119.66 L280.976,1118.76 L280.373,1118.22 L279.767,1117.63 L272.128,1110.19 L271.652,1109.5 L271.311,1108.67 L235.499,1021.06 L235.148,1019.9 L248.845,989.303 L258.772,970.153 L269.406,959.365 L270.693,958.298 L271.6,958.272 L272.514,958.48 L274.17,959.135 L275.216,959.246 L276.301,959.074 L277.203,958.862 L278.724,958.023 L279.731,956.685 L279.846,955.886 L279.905,953.218 L279.566,952.432 L274.031,946.273 L269.488,941.489 L253.209,928.618 L239.496,911.978 L238.546,910.601 L238.038,908.743 L238.004,907.575 L240.085,883.364 L240.193,882.332 L240.533,881.526 L240.97,880.812 L242.693,879.031 L244.982,877.796 L249.168,876.087 L258.895,862.432 L258.787,856.82 L259.246,850.444 L259.698,848.559 L260.442,845.872 L260.785,845.067 L261.657,843.64 L279.815,827.615 L299.76,811.278 L300.868,810.08 L301.35,809.366 L301.65,808.563 L301.664,807.394 L301.117,805.584 L299.219,802.828 L298.612,802.235 L297.782,801.883 L296.958,801.811 L296.839,788.438 L297.841,786.588 L299.529,784.815 L300.246,784.328 L302.915,783.465 L305.818,782.829 L311.905,781.785 L319.801,780.229 L320.613,779.835 L321.192,779.259 L321.63,778.547 L321.74,777.515 L321.343,774.393 L314.726,752.537 L313.954,750.92 L313.528,750.229 L311.569,748.642 L307.775,746.633 L306.16,745.972 L303.553,743.934 L302.471,742.698 L301.004,740.631 L300.188,739.108 L295.697,718.645 L293.438,710.565 L285.089,696.744 L291.45,685.921 L292.169,685.436 L292.705,684.861 L293.19,684.148 L298.256,672.566 L300.873,663.57 L301.05,661.461 L301.036,653.419 L300.123,623.093 L298.412,605.225 L298.068,594.665 L298.154,592.419 L298.68,581.745 L297.228,578.506 L296.638,576.743 L296.228,555.383 L296.341,554.306 L296.784,553.594 L304.59,543.921 L311.117,536.385 L311.84,535.901 L321.933,531.793 L329.399,516.669 L333.262,506.581 L344.475,492.277 L344.475,492.277"/>
   <path fill-rule="evenodd" vector-effect="none" d="M637.685,1334.62 L639.197,1335.94 L639.969,1336.53 L650.777,1344.33 L653.667,1345.67 L657.88,1348.33 L660.242,1350.24 L665.256,1354.89 L668.083,1357.64 L671.794,1362.22 L675.965,1367.41 L683.894,1377.55 L685.508,1380.13 L686.386,1381.65 L687.36,1383.41 L695.944,1402.35 L696.787,1404.34 L697.871,1407.26 L697.896,1408.51 L697.395,1410.34 L696.306,1411.67 L694.988,1412.67 L691.453,1414.42 L689.373,1415.16 L687.379,1415.81 L683.159,1416.73 L681.168,1417.52 L679.764,1418.71 L679.137,1420.78 L678.156,1433.81 L678.181,1435.06 L678.833,1440.83 L679.581,1442.59 L680.594,1444.11 L681.823,1445.43 L683.541,1446.61 L691.087,1449.58 L693.174,1449.31 L694.984,1448.43 L697.2,1447.88 L701.787,1447.78 L713.041,1449.34 L714.159,1449.59 L715.298,1450.78 L714.791,1452.29 L713.748,1453.61 L712.26,1454.99 L707.423,1458.07 L705.569,1458.95 L701.497,1460.24 L699.736,1461.21 L691.38,1466.41 L690.252,1467.88 L690.143,1469.14 L688.576,1488.33 L688.489,1490.52 L689.153,1492.52 L696.295,1506.96 L698.445,1509.9 L699.763,1511.32 L715.204,1523.46 L716.91,1524.45 L719.104,1525.3 L734.265,1530.55 L737.735,1530.86 L742.837,1530.67 L750.874,1533.03 L752.842,1533.79 L754.906,1535.01 L756.356,1536.52 L757.095,1538.14 L758.96,1543.04 L760.239,1547.35 L761.187,1550.69 L762.23,1554.4 L764.424,1560.33 L766.275,1564.53 L769.133,1570.49 L772.467,1575.84 L776.729,1581.17 L779.987,1584.93 L791.807,1597.07 L794.257,1600.38 L794.905,1602 L795.2,1603.72 L795.187,1605.45 L794.684,1607.04 L792.802,1608.28 L791.266,1609.06 L788.003,1609.77 L760.962,1612.64 L755.038,1613.17 L753.181,1613.25 L749.722,1612.94 L746.573,1612.72 L742.995,1613.12 L737.211,1613.98 L733.065,1614.8 L731.219,1615.54 L725.609,1618.4 L722.77,1620.28 L719.588,1622.77 L711.985,1629.82 L705.581,1636.81 L698.772,1643.39 L697.38,1644.53 L691.361,1648.53 L662.736,1662.32 L646.245,1670.2 L619.873,1682.36 L556.739,1711.33 L535.319,1721.11 L529.388,1722.35 L512.056,1717.33 L484.32,1707.72 L467.359,1702.72 L450.183,1698.19 L433.025,1693.02 L417.952,1688.31 L404.85,1683.17 L393.215,1679.88 L396.441,1675.26 L411.778,1658.64 L413.488,1658.02 L414.047,1657.45 L414.01,1656.28 L413.424,1654.61 L412.319,1653.34 L405.912,1647.09 L404.172,1645.42 L395.966,1638.62 L394.564,1637.78 L390.597,1635.9 L389.744,1635.6 L386.032,1634.78 L381.939,1633.18 L379.135,1631.64 L378.542,1631.1 L377.227,1628.94 L364.21,1615.39 L357.352,1609.58 L339.005,1598.13 L337.764,1597 L336.83,1595.68 L326.96,1578.79 L331.852,1566.79 L328.661,1560.68 L320.201,1543.65 L315.892,1529.57 L314.866,1521.65 L314.041,1513.03 L314.859,1504.16 L315.204,1501.15 L314.911,1499.05 L314.404,1497.25 L313.296,1494.85 L312.443,1493.38 L311.973,1492.7 L309.452,1489.41 L308.854,1488.87 L307.271,1486.96 L306.461,1485.49 L306.163,1484.56 L303.973,1467.18 L303.533,1459.38 L303.363,1458.36 L302.639,1456.75 L301.569,1455.52 L299.214,1453.26 L298.484,1452.81 L296.083,1450.6 L294.628,1448.54 L293.303,1446.39 L292.918,1445.61 L292.793,1444.53 L293.087,1442.6 L293.884,1441.08 L294.871,1439.78 L295.432,1439.16 L297.395,1437.64 L298.094,1437.15 L299.681,1436.39 L303.092,1433.99 L303.653,1433.41 L304.548,1432.02 L304.941,1429.02 L304.827,1425.56 L304.296,1425.41 L307.267,1423.56 L313.419,1420.03 L315.185,1419.28 L317.174,1418.51 L321.294,1417.21 L323.519,1416.81 L329.956,1415.1 L335.139,1413.39 L339.768,1411.19 L344.863,1408.08 L348.058,1405.74 L358.75,1396.85 L362.233,1393.56 L364.227,1391.44 L366.687,1388.38 L367.151,1387.47 L368.354,1385.75 L375.402,1375.96 L377.909,1372.89 L381.067,1369.15 L384.344,1366.34 L386.408,1364.92 L390.771,1362.46 L396.296,1359.82 L399.128,1358.61 L401.483,1357.89 L406.733,1356.62 L412.676,1356.07 L421.35,1355.41 L431.601,1355.21 L443.021,1355.13 L445.444,1355.2 L449.862,1356.25 L451.8,1356.76 L472.043,1365.18 L473.9,1366.01 L480.635,1370.22 L483.418,1372.16 L494.464,1380.56 L501.497,1386.07 L505.412,1388.81 L507.948,1390.01 L510.953,1390.35 L513.04,1389.83 L515.64,1388.37 L516.999,1387.26 L518.697,1383.71 L519.478,1380.98 L519.057,1378.52 L518.489,1377.23 L518.062,1376.31 L515.835,1373.14 L514.641,1370.18 L514.554,1368.46 L514.805,1367.8 L515.022,1367.56 L517.299,1365.63 L519.67,1363.85 L525.481,1360.06 L532.49,1355.73 L538.394,1351.99 L546.447,1346.29 L559.171,1335.53 L561.546,1333.75 L563.924,1332.06 L565.6,1330.95 L586.973,1317.91 L595.581,1314.31 L605.858,1311.24 L607.995,1310.63 L612.452,1309.69 L613.707,1309.71 L616.941,1310.25 L618.438,1311.1 L620.852,1313.01 L622.78,1315.16 L624.446,1317.74 L626.513,1322.31 L628.862,1325.48 L633.818,1331.3 L636.557,1333.8 L637.685,1334.62 L637.685,1334.62"/>
   <path fill-rule="evenodd" vector-effect="none" d="M674.662,53.183 L675.013,51.8852 L675.608,51.2731 L677.217,50.5565 L689.8,47.9985 L690.859,47.8474 L700.317,46.6762 L702.397,46.8877 L706.24,47.7792 L707.304,47.9079 L709.523,47.9785 L710.489,47.7354 L717.287,44.0795 L750.477,32.5306 L753.148,31.6674 L767.433,28.2752 L796.972,26.151 L799.281,26.1312 L800.116,26.4964 L800.583,27.1442 L801.106,29.0018 L801.528,29.6966 L802.499,29.921 L803.653,29.9112 L820.064,26.5622 L827.89,23.5662 L828.811,23.3261 L829.736,23.5514 L836.482,29.8745 L840.11,33.1972 L845.31,37.299 L846.144,37.6182 L847.162,37.7499 L851.407,37.9031 L852.423,37.8023 L853.158,37.3314 L861.082,28.9873 L861.444,28.1933 L861.473,25.959 L861.906,21.8139 L865.155,18.0668 L873.445,11.3098 L876.837,11.7463 L878.733,12.1982 L879.657,12.4243 L882.158,13.4304 L883.503,14.3518 L885.18,16.2013 L890.228,25.1473 L896.302,36.0872 L897.098,37.6173 L897.381,38.5461 L897.171,41.5254 L895.034,46.3332 L893.62,48.5301 L892.848,50.0712 L891.579,53.4306 L891.271,55.3869 L891.287,57.7136 L891.93,70.4593 L892.404,72.3175 L892.78,73.1523 L895.392,77.508 L896.707,80.8489 L897.227,82.7068 L899.445,96.5578 L899.738,98.6499 L899.615,100.884 L899.436,101.816 L896.195,112.402 L895.608,114.129 L894.602,115.439 L892.866,117.173 L890.895,118.723 L888.924,120.227 L885.45,123.789 L884.399,125.054 L883.171,127.39 L882.046,130.888 L882.057,130.929 L872.611,132.264 L871.099,133.113 L869.862,134.147 L867.532,136.492 L864.568,140.611 L863.075,143.741 L861.115,146.456 L859.054,147.869 L838.753,160.418 L822.21,180.113 L820.336,181.852 L802.615,197.145 L792.61,200.406 L784.956,198.804 L782.05,198.228 L779.841,198.389 L777.411,199.437 L766.022,206.816 L765.337,207.288 L764.929,207.991 L765.033,209.015 L765.501,209.708 L766.196,210.167 L767.164,210.39 L768.222,210.239 L769.14,209.997 L768.321,229.144 L751.648,249.157 L748.891,262.273 L748.685,264.418 L738.921,283.621 L732.107,290.871 L707.38,306.484 L686.469,306.46 L684.719,306.296 L683.112,306.362 L681.459,306.662 L672.288,308.409 L670.642,309.036 L669.055,310.734 L667.769,314.338 L664.121,330.695 L664.379,332.881 L665.787,342.323 L657.569,349.561 L650.247,351.477 L636.033,356.658 L634.3,357.614 L633.105,360.8 L630.724,387.308 L635.941,396.091 L636.563,397.853 L641.206,411.444 L641.644,413.209 L641.281,416.756 L640.847,418.487 L636.297,433.979 L634.273,449.344 L636.647,458.165 L636.72,459.889 L636.519,461.803 L635.305,463.499 L633.638,465.294 L631.882,466.894 L621.479,461.232 L581.44,442.497 L554.933,431.494 L527.064,419.731 L497.824,406.884 L476.15,397.042 L457.079,388.615 L456.807,389.779 L454.49,393.741 L446.991,398.452 L443.849,400.05 L442.025,400.831 L430.917,404.212 L423.687,405.935 L421.676,406.533 L418.023,407.91 L414.017,409.994 L411.79,411.298 L409.977,412.593 L408.405,414.492 L407.746,416.092 L407.061,418.628 L406.921,420.919 L406.928,426.102 L407.282,430.018 L407.72,433.746 L407.396,435.901 L406.42,437.741 L405.396,439.302 L398.046,444.117 L396.501,444.988 L394.861,445.629 L393.136,446.737 L390.467,448.799 L388.218,451.179 L387.327,452.505 L385.549,460.062 L383.115,466.791 L381.573,469.999 L378.249,475.954 L377.266,477.188 L376.098,478.427 L374.787,479.435 L350.295,491.725 L344.475,492.277 L343.861,491.396 L340.22,484.464 L333.702,471.798 L331.442,467.173 L316.571,438.326 L308.842,423.347 L301.549,409.479 L300.588,407.723 L295.582,399.696 L290.436,391.625 L288.104,388.168 L281.476,377.791 L276.325,369.719 L257.237,339.734 L251.361,330.507 L245.486,321.279 L213.882,271.626 L202.155,253.162 L190.452,234.647 L190.605,234.553 L195.096,234.736 L204.012,234.355 L210.011,233.712 L211.07,233.548 L216.398,231.843 L247.961,233.379 L272.406,235.637 L310.343,243.11 L321.811,251.113 L321.39,260.328 L321.407,261.216 L322.312,262.647 L323.059,263.1 L324.824,263.626 L325.888,263.746 L335.372,262.581 L342.951,260.706 L348.554,259.245 L354.729,257.403 L357.033,256.328 L359.859,254.406 L363.301,250.885 L364.244,249.466 L365.61,248.506 L384.502,241.994 L392.078,239.896 L394.203,240.092 L395.218,239.981 L399.292,238.18 L403.227,236.242 L404.639,235.284 L405.23,234.713 L412.788,223.654 L429.576,198.576 L430.24,196.931 L430.455,195.994 L430.632,192.723 L430.989,191.923 L433.518,188.613 L436.754,186.039 L440.225,183.648 L446.048,181.265 L448.76,180.381 L472.617,179.86 L475.987,179.9 L478.95,180.461 L480.669,181.134 L485.747,184.228 L492.742,188.879 L493.804,189.002 L499.708,185.786 L504.224,173.167 L514.524,158.272 L515.161,157.563 L519.303,153.537 L528.107,149.491 L531.411,148.044 L541.26,142.681 L560.386,130.384 L561.758,129.433 L562.117,128.635 L561.614,125.611 L561.128,123.752 L561.251,122.725 L561.798,122.111 L563.638,121.62 L565.757,121.358 L576.364,120.191 L577.563,120.175 L579.415,120.617 L582.848,121.877 L584.699,122.272 L586.688,122.479 L602.128,113.376 L603.408,112.288 L607.791,108.55 L620.2,96.4169 L623.619,92.8794 L627.444,88.4521 L627.9,87.7476 L631.914,83.5982 L633.786,81.8514 L654.842,65.576 L659.481,63.1934 L665.413,60.9369 L666.379,60.6931 L669.599,59.2596 L671.207,58.5427 L672.032,58.1609 L673.41,57.2139 L673.909,56.5097 L674.71,53.8454 L674.662,53.183 L674.662,53.183"/>
   <path fill-rule="evenodd" vector-effect="none" d="M697.871,1407.26 L703.119,1406.45 L724.999,1405.34 L736.927,1406.33 L739.208,1406.76 L741.567,1406.48 L742.63,1406.04 L744.307,1405.03 L747.386,1402.69 L749.493,1400.79 L755.332,1395.52 L760.564,1391.14 L765.056,1387.7 L768.234,1385.69 L771.556,1384.29 L773.334,1383.88 L776.447,1383.18 L782.057,1382.52 L786.435,1382.87 L790.953,1383.54 L792.117,1383.8 L794.675,1384.69 L794.943,1386.09 L796.805,1389.6 L799.462,1393.93 L808.235,1404.32 L809.849,1404.9 L814.29,1403.76 L817.792,1402.5 L829.102,1407.63 L845.404,1419.13 L855.924,1428.85 L860.366,1434.28 L868.533,1445.21 L882.712,1460.42 L896.288,1471.28 L903.76,1476.35 L901.843,1478.01 L901.046,1478.25 L899.89,1478.22 L897.615,1477.69 L886.897,1473.92 L852.903,1466.11 L851.809,1479.21 L858.522,1494.63 L862.746,1516.27 L887.88,1519.97 L890.466,1520.82 L891.947,1522.15 L892.462,1524 L892.7,1525.16 L892.512,1527.68 L892.17,1528.71 L890.788,1531.34 L889.696,1532.8 L888.865,1533.46 L885.563,1535.46 L884.729,1536.12 L879.738,1540.71 L879.172,1541.51 L878.621,1543.24 L878.72,1544.03 L880.758,1562.77 L874.287,1574.93 L874.173,1576.33 L874.866,1578.32 L878.043,1586.7 L881.842,1590.11 L898.79,1611.09 L899.958,1615.51 L900.241,1616.31 L901.364,1617.53 L910.141,1622.79 L913.16,1624.57 L936.985,1635.3 L938.562,1635.84 L939.748,1635.94 L952.748,1636.67 L953.657,1636.43 L955.421,1634.73 L958.272,1632.93 L960.735,1631.98 L963.763,1631.67 L972.779,1632.12 L975.41,1632.98 L976.042,1633.52 L982.919,1639.63 L983.773,1641.16 L988.93,1652.88 L989.172,1654.88 L988.534,1661.18 L992.833,1675.95 L993.364,1676.61 L1003.87,1691.51 L1003.81,1692.16 L1003.6,1692.72 L1001.78,1695.63 L999.43,1699.1 L998.433,1700.55 L996.432,1703.23 L994.823,1705.1 L983.718,1717.1 L981.929,1718.75 L978.567,1721.25 L972.137,1725.1 L956.738,1733.66 L955.949,1734 L951.695,1735.4 L950.774,1735.6 L947.74,1735.91 L943.428,1736.06 L941.27,1736.04 L939.247,1736.3 L934.459,1737.11 L926.161,1738.89 L922.965,1740.24 L920.826,1741.62 L911.974,1747.65 L911.366,1748.22 L904.393,1774.73 L904.07,1776.78 L903.943,1780.23 L904.003,1781.26 L904.526,1784.04 L905.224,1786.73 L907.241,1792.57 L908.258,1796.19 L910.582,1805.05 L916.626,1829.05 L916.859,1829.98 L916.712,1832.08 L914.444,1839.19 L913.091,1842.61 L910.879,1847.44 L908.58,1852.17 L908.064,1852.83 L904.616,1859.92 L897.101,1881.92 L896.74,1883.98 L896.668,1885.14 L895.263,1907.85 L890.921,1921.24 L890.311,1924.18 L890.083,1929.27 L889.849,1953.45 L890.004,1957.68 L890.916,1960.14 L893.763,1966.38 L894.743,1967.72 L896.387,1969.51 L913.432,1985.97 L926.787,1995.89 L928.108,1996.89 L928.481,1998.04 L928.732,1997.82 L929.041,2004.15 L928.881,2005.22 L926.517,2013.5 L925.845,2015.18 L923.722,2018.9 L920.962,2020.71 L920.111,2022.16 L915.774,2034.85 L914.731,2040.69 L914.721,2042.88 L916.298,2043.65 L918.32,2045.11 L923.014,2050.72 L924.035,2052.06 L933.949,2067.24 L934.395,2068.07 L935.302,2070.53 L935.992,2073.22 L939.8,2090.63 L937.091,2091.46 L873.244,2093.35 L864.111,2095 L852.142,2095.96 L849.967,2095.72 L849.051,2095.45 L847.472,2094.69 L839.727,2089.15 L830.965,2078.27 L821.567,2066.33 L797.533,2049.78 L779.023,2042.84 L774.565,2041.62 L772.809,2043.3 L772.287,2045.55 L768.722,2062.17 L766.038,2074.96 L764.797,2084.03 L764.779,2085.15 L762.486,2091.63 L756.622,2098.42 L747.8,2101.56 L733.315,2106.41 L723.354,2109.54 L714.552,2112.03 L703.237,2113 L695.9,2118.45 L691.095,2143.34 L690.793,2152.07 L679.117,2156.76 L667.352,2161.26 L652.565,2169.35 L653.483,2177.73 L654.497,2186.38 L654.706,2189.27 L637.785,2202.38 L637.367,2202.91 L628.845,2220.04 L605.436,2225.95 L579.924,2232.2 L567.684,2235.22 L534.23,2232.4 L521.02,2224.43 L519.169,2205.1 L523.443,2179.36 L523.899,2177.43 L517.235,2158.07 L515.95,2155.96 L509.302,2136.04 L510.583,2132.64 L510.816,2130.48 L510.633,2126.19 L510.471,2125.26 L506.547,2103.66 L506.26,2102.83 L501.724,2095.92 L497.865,2093.81 L483.708,2080.82 L483.431,2079.05 L482.928,2071.78 L482.963,2066.26 L482.536,2059.97 L481.931,2056.16 L479.64,2044.97 L478.811,2042.38 L476.325,2035.83 L474.407,2032.06 L472.612,2029.31 L468.381,2024.27 L466.16,2021.86 L465.338,2020.77 L463.611,1968.76 L456.766,1958.26 L424.93,1909.85 L424.004,1909.79 L419.799,1910.07 L415.818,1910.58 L412.472,1910.32 L410.651,1909.78 L408.11,1908.74 L406.632,1907.86 L405.449,1906.73 L404.31,1905.56 L403.05,1903.4 L403.097,1903.07 L402.712,1902.57 L401.711,1899.05 L400.659,1877.53 L400.938,1875.47 L401.766,1873.89 L405.901,1868.75 L407.003,1867.54 L409.481,1865.35 L414.482,1862.33 L415.722,1861.26 L416.185,1860.59 L416.46,1859.65 L416.382,1858.62 L415.962,1857.93 L414.865,1856.71 L411.736,1854.01 L402.508,1848.06 L399.07,1846.72 L394.445,1845.39 L390.923,1844.15 L388.421,1843.12 L384.432,1841.2 L380.747,1839.08 L378.709,1837.56 L374.178,1832.76 L371.767,1829.39 L370.037,1826.55 L369.404,1824.89 L368.692,1822.2 L368.283,1819.31 L368.423,1817.01 L369.068,1815.31 L369.575,1814.64 L370.769,1813.52 L372.932,1812.23 L376.747,1810.32 L373.385,1793.55 L366.55,1777.28 L364.977,1776.49 L364.297,1776 L363.196,1774.82 L362.772,1774.09 L362.139,1772.42 L362.19,1771.3 L362.465,1770.35 L362.88,1769.59 L363.894,1768.25 L365.186,1767.27 L383.546,1762.71 L388.588,1761.55 L389.646,1761.47 L392.627,1762.07 L393.521,1762.37 L394.586,1762.52 L395.644,1762.44 L396.618,1759.84 L402.979,1738.44 L395.585,1724.8 L385.902,1717.03 L376.753,1710.93 L375.051,1710.29 L374.37,1709.8 L373.946,1709.06 L373.868,1708.04 L375.331,1704.15 L375.961,1703.15 L376.256,1702.72 L388.757,1686.97 L393.215,1679.88 L404.85,1683.17 L417.952,1688.31 L433.025,1693.02 L450.183,1698.19 L467.359,1702.72 L484.32,1707.72 L512.056,1717.33 L529.388,1722.35 L535.319,1721.11 L556.739,1711.33 L619.873,1682.36 L646.245,1670.2 L662.736,1662.32 L691.361,1648.53 L697.38,1644.53 L698.772,1643.39 L705.581,1636.81 L711.985,1629.82 L719.588,1622.77 L722.77,1620.28 L725.609,1618.4 L731.219,1615.54 L733.065,1614.8 L737.211,1613.98 L742.995,1613.12 L746.573,1612.72 L749.722,1612.94 L753.181,1613.25 L755.038,1613.17 L760.962,1612.64 L788.003,1609.77 L791.266,1609.06 L792.802,1608.28 L794.684,1607.04 L795.187,1605.45 L795.2,1603.72 L794.905,1602 L794.257,1600.38 L791.807,1597.07 L779.987,1584.93 L776.729,1581.17 L772.467,1575.84 L769.133,1570.49 L766.275,1564.53 L764.424,1560.33 L762.23,1554.4 L761.187,1550.69 L760.239,1547.35 L758.96,1543.04 L757.095,1538.14 L756.356,1536.52 L754.906,1535.01 L752.842,1533.79 L750.874,1533.03 L742.837,1530.67 L737.735,1530.86 L734.265,1530.55 L719.104,1525.3 L716.91,1524.45 L715.204,1523.46 L699.763,1511.32 L698.445,1509.9 L696.295,1506.96 L689.153,1492.52 L688.489,1490.52 L688.576,1488.33 L690.143,1469.14 L690.252,1467.88 L691.38,1466.41 L699.736,1461.21 L701.497,1460.24 L705.569,1458.95 L707.423,1458.07 L712.26,1454.99 L713.748,1453.61 L714.791,1452.29 L715.298,1450.78 L714.159,1449.59 L713.041,1449.34 L701.787,1447.78 L697.2,1447.88 L694.984,1448.43 L693.174,1449.31 L691.087,1449.58 L683.541,1446.61 L681.823,1445.43 L680.594,1444.11 L679.581,1442.59 L678.833,1440.83 L678.181,1435.06 L678.156,1433.81 L679.137,1420.78 L679.764,1418.71 L681.168,1417.52 L683.159,1416.73 L687.379,1415.81 L689.373,1415.16 L691.453,1414.42 L694.988,1412.67 L696.306,1411.67 L697.395,1410.34 L697.896,1408.51 L697.871,1407.26 L697.871,1407.26"/>
   <path fill-rule="evenodd" vector-effect="none" d="M1509.62,651.332 L1511.69,653.853 L1512.77,655.115 L1520.04,658.275 L1522.84,658.978 L1526.08,659.15 L1563.99,654.335 L1600.53,649.59 L1606.17,657.629 L1613.71,664.719 L1639.53,680.655 L1642.07,681.651 L1644.23,681.828 L1648.54,681.711 L1659.71,691.242 L1674.77,696.418 L1691.19,701.8 L1693.13,703.077 L1707.04,732.93 L1706.83,733.87 L1704.23,740.488 L1701.13,745.481 L1698.92,747.925 L1694.62,750.625 L1693.61,751.917 L1693.04,753.634 L1690.88,760.733 L1690.49,763.673 L1690.63,764.779 L1695.28,783.318 L1695.88,785.09 L1699.28,789.806 L1712.21,816.622 L1722.6,840.198 L1723.25,854.174 L1724.73,888.883 L1725.2,909.518 L1725.26,919.065 L1719.79,919.137 L1704.77,918.629 L1674.37,919.118 L1695.53,943.476 L1729.6,983.663 L1735.44,1066.73 L1735.46,1069.01 L1738.7,1115.3 L1747.37,1115.89 L1763.73,1116.83 L1840.26,1121.25 L1847.23,1121.65 L1930.92,1126.56 L2000.7,1130.67 L2016.5,1131.58 L2018.21,1131.52 L2020.58,1130.46 L2022.04,1129.56 L2023.2,1128.32 L2024.17,1126.94 L2025.31,1124.68 L2026.06,1123.07 L2035.66,1123.47 L2035.82,1128.1 L2035.7,1143.12 L2031.72,1161.51 L2029.63,1164.22 L2028.57,1165.31 L2023.21,1169.21 L2019.62,1172.58 L2017.58,1175.28 L2011.86,1183.41 L2011.15,1185.03 L2010.12,1189.33 L2009.84,1197.23 L2011.15,1226.24 L2011.33,1228.43 L2011.64,1230.4 L2012.18,1232.28 L2013.55,1235.44 L2014.46,1236.86 L2015.23,1238.37 L2015.86,1240.11 L2017.12,1245.79 L2019.39,1261.95 L2019.56,1264.14 L2019.48,1267.46 L2018.83,1276.21 L2019.72,1282.26 L2020.52,1286.1 L2021.38,1287.62 L2022.29,1288.9 L2024.66,1291.2 L2027.85,1292.67 L2031.55,1293.6 L2033.52,1293.88 L2036.94,1294.99 L2044.01,1299.6 L2064.27,1313.89 L2064.77,1315.49 L2066.29,1319.12 L2068.99,1321.99 L2079.92,1329 L2081.88,1329.75 L2085.47,1330.38 L2086.98,1329.68 L2099.6,1323.87 L2102.89,1326.48 L2117.5,1339.77 L2122.51,1344.39 L2124.57,1346.6 L2124.8,1347.96 L2121.37,1349.13 L2120.25,1350.5 L2118.5,1353.95 L2121.54,1362.31 L2125.6,1367.51 L2126.73,1368.67 L2128.09,1369.33 L2127.9,1371.17 L2127.25,1377.28 L2127.28,1389.05 L2148.13,1431.9 L2157.33,1450.31 L2152.68,1456.29 L2151.5,1458.45 L2150.19,1462.01 L2139.01,1494.21 L2114.01,1566.6 L2113.71,1567.71 L2120.85,1568.58 L2121.91,1568.7 L2122.29,1572.17 L2123.65,1590.58 L2112.13,1590.89 L2110.34,1594.29 L2104.54,1605.75 L2098.83,1617.22 L2080.92,1652.8 L2059.49,1695.24 L2053.79,1705.87 L2056.53,1709.12 L2094.83,1745.81 L2094.94,1745.91 L2095.9,1747.05 L2088.63,1754.41 L2087.91,1754.95 L2086.47,1755.79 L2053.6,1774.43 L2045.71,1777.37 L2049.26,1769.26 L2049.55,1768.33 L2050.23,1763.07 L2051.07,1747.96 L2050.91,1745.9 L2048.66,1721.32 L2048.56,1720.29 L2035.92,1712.27 L2030.31,1709.03 L1990.72,1686.85 L1948.01,1662.73 L1900.33,1635.98 L1890.7,1635.2 L1847.44,1631.66 L1824.33,1629.8 L1760.84,1624.46 L1757.97,1624.37 L1753.97,1624.76 L1753.13,1625.64 L1747.3,1627.21 L1688.65,1642.39 L1673.97,1646.18 L1658.5,1650.06 L1629.32,1654.89 L1540.04,1669.44 L1490.47,1677.43 L1478.77,1679.3 L1473.61,1692.62 L1461.8,1723.72 L1451.23,1752 L1421.09,1794.96 L1405.67,1817.32 L1399.92,1817.24 L1370.88,1817.54 L1318.82,1817.97 L1313.03,1818.01 L1286.94,1818.08 L1234.4,1817.93 L1232.43,1817.42 L1230.93,1816.59 L1229.84,1815.52 L1213.1,1806.11 L1200.4,1815.17 L1198.87,1815.92 L1196.81,1815.97 L1176.19,1813.81 L1174.25,1813.4 L1172.76,1812.43 L1172.44,1810.48 L1172.07,1804.38 L1169.9,1767.44 L1169.73,1760.23 L1170.02,1754.45 L1168.7,1743.52 L1168.42,1741.57 L1166.34,1736.92 L1164.78,1733.91 L1164.16,1732.14 L1163.76,1730.42 L1163.57,1728.33 L1163.29,1714.32 L1163.65,1705.24 L1163.25,1694.68 L1159.94,1652.86 L1156.89,1613.36 L1156.92,1608.85 L1157.91,1602.7 L1159.76,1590.22 L1160.65,1582.77 L1161.09,1578.15 L1138.95,1577.57 L1137.18,1578.32 L1135.77,1580 L1135.47,1581.59 L1135.79,1583.54 L1135.93,1585.4 L1135.9,1587.03 L1135.82,1588.61 L1135.08,1591.92 L1134.56,1593.88 L1133.42,1596.12 L1132.1,1597.85 L1130.43,1599.3 L1128.85,1600.38 L1127.08,1600.57 L1125.44,1600.49 L1120.4,1599.82 L1118.67,1599.41 L1117.07,1597.88 L1112.34,1584.51 L1097.86,1568.73 L1075.45,1543.56 L1074.47,1542.41 L1073.53,1540.88 L1069.46,1530.53 L1068.83,1528.58 L1068.99,1526.16 L1069.41,1523.73 L1069.49,1522.01 L1069.2,1518.66 L1068.21,1517.04 L1064.68,1515.33 L1072.41,1504.26 L1072.9,1503.46 L1073.07,1502.44 L1071.69,1489.6 L1071.24,1487.74 L1070.7,1486.91 L1069.36,1485.71 L1059.13,1478.29 L1057.39,1477.33 L1053.83,1476.29 L1053.16,1475.92 L1051.6,1474.53 L1050.6,1472.87 L1047.69,1464.37 L1045.23,1456.25 L1042.48,1446.82 L1041.85,1445.2 L1038.96,1440.29 L1020.24,1410.66 L1017.04,1405.85 L1013.71,1401.41 L1012.49,1399.88 L1011.01,1398.55 L1008.27,1396.66 L1006.92,1395.46 L1005.58,1394.03 L1005.07,1392.18 L1004.81,1388.73 L1004.84,1386.17 L1005.49,1384.35 L1006.59,1383.13 L1011.19,1379.55 L1015.44,1375.88 L1026,1364.67 L1028.16,1361.53 L1051.49,1326.96 L1053.43,1323.55 L1054.09,1321.73 L1054.21,1320.1 L1053.68,1315.17 L1053.71,1313.77 L1054.33,1312.04 L1062.02,1307.1 L1064.03,1306.44 L1065.28,1306.47 L1069.88,1307.19 L1082.97,1306.54 L1083.88,1295.42 L1083.38,1293.79 L1082.56,1292.12 L1081.34,1290.36 L1063.54,1269.17 L1055.54,1262.85 L1017.8,1238.38 L1006.45,1231.63 L1004.78,1229.97 L996.799,1213.85 L994.151,1208.47 L993.42,1206.85 L991.804,1201.51 L991.006,1197.7 L990.743,1194.44 L991.048,1187.32 L997.058,1171.82 L1003.68,1159.71 L1005.34,1158.57 L1005.95,1156.99 L1014.14,1131.09 L1012.09,1106.16 L1010.52,1095.52 L1007.51,1079.21 L1007.09,1077.21 L1005.52,1072.01 L1003.78,1068.63 L1002.58,1054.54 L1006.24,1043.41 L1010.16,1044.52 L1019.23,1046.26 L1035.68,1047.21 L1046.03,1047.45 L1052.07,1047.58 L1098.91,1049 L1154.08,1051.08 L1182.53,1052.24 L1214,1053.7 L1220.79,1051.46 L1218.59,1050.95 L1216.6,1050.07 L1215.03,1049.14 L1209.07,1042.97 L1208.35,1041.44 L1208.12,1039.85 L1208.05,1030.27 L1207.33,1028.64 L1201.14,1018.7 L1199.42,1017.27 L1197.48,1016.06 L1181.5,1007.78 L1179.88,1007.69 L1177.76,1005.93 L1170.07,998.553 L1168.62,996.79 L1152.98,973.212 L1151.76,971.356 L1138.77,951.17 L1137.81,949.545 L1127.38,926.422 L1123.4,915.74 L1123.34,913.646 L1123.97,912.062 L1126.85,876.928 L1126.93,875.346 L1126.28,871.72 L1123.3,860.709 L1122.24,856.992 L1120.21,855.232 L1144.3,850.066 L1164.53,844.555 L1183.44,838.548 L1245.41,802.812 L1274.6,785.821 L1304.18,768.016 L1350.05,741.888 L1401.45,712.854 L1443.45,689.425 L1461.51,678.061 L1509.62,651.332 L1509.62,651.332"/>
   <path fill-rule="evenodd" vector-effect="none" d="M928.481,1998.04 L929.651,1976.8 L932.722,1953.14 L935.108,1929.86 L936.264,1915.41 L936.611,1905.62 L936.554,1904.6 L936.876,1902.54 L937.169,1901.61 L938.276,1899.27 L938.791,1898.61 L939.707,1898.41 L952.066,1900.01 L978.294,1913.01 L980.38,1915.54 L985.063,1919.86 L989.55,1922.37 L992.616,1922.99 L997.503,1922.33 L998.979,1921.47 L1000.06,1920.25 L1000.44,1919.46 L1002.47,1913.24 L1002.77,1912.31 L1002.43,1909.28 L1002.76,1907.23 L1003.69,1904.66 L1007.32,1896.75 L1007.8,1896.09 L1008.4,1895.53 L1009.14,1895.1 L1010.06,1894.95 L1011.2,1894.99 L1019.57,1897.09 L1020.49,1897.36 L1028.06,1905.89 L1031.82,1910.23 L1044.11,1921.06 L1062.53,1928.48 L1064.2,1929.12 L1066.17,1929.56 L1085,1930.67 L1085.78,1930.38 L1087.96,1929.11 L1089.08,1927.89 L1090.08,1926.53 L1090.72,1924.85 L1090.89,1923.83 L1093.01,1910.22 L1092.35,1897.65 L1092.3,1896.63 L1092.41,1893.42 L1092.74,1891.37 L1094.21,1888.1 L1110.2,1891.8 L1111.34,1893 L1115.09,1898.38 L1124.11,1905.54 L1126.9,1905.75 L1141.37,1905.86 L1274.46,1906.18 L1291.46,1906.18 L1340.67,1906.11 L1355.14,1906.11 L1392.73,1906.06 L1395.44,1905.93 L1395.74,1915.38 L1376.8,1977.21 L1362.08,2025.38 L1361.4,2027.7 L1359.61,2033.89 L1353.55,2053.74 L1341.46,2093.41 L1336.26,2110.39 L1334.75,2113.23 L1333,2113.04 L1332.31,2112.52 L1315.86,2099.08 L1312.05,2093.73 L1311.15,2091.26 L1311.1,2090.23 L1311.89,2087.49 L1311.55,2083.02 L1310.56,2076.87 L1310.38,2075.94 L1309.78,2074.31 L1309.13,2072.99 L1308.57,2072.64 L1307.59,2072.62 L1305.7,2072.59 L1296.98,2072.76 L1258.82,2073.23 L1186.46,2073.87 L1172.01,2073.88 L1164.63,2073.87 L1132.11,2073.72 L1124.09,2089.46 L1114.04,2115.55 L1103.62,2142.54 L1097.03,2151.99 L1096.04,2153.35 L1093.16,2156.17 L1091.92,2157.3 L1091.36,2157.67 L1089.17,2159.13 L1088.31,2160.58 L1085.5,2166.06 L1084.1,2169.09 L1080.4,2181 L1079.85,2182.82 L1079.69,2183.84 L1079.23,2195.91 L1079.62,2200.42 L1077.01,2213.53 L1074.72,2218.25 L1073.45,2220.45 L1071.29,2220.14 L1070.46,2219.78 L1070.15,2218.94 L1069.78,2215.36 L1069.78,2210.52 L1068.97,2202.66 L1067.76,2198.25 L1067.37,2197.55 L1066.23,2196.35 L1058.9,2188.74 L1053.8,2183.48 L1053.23,2182.88 L1052.92,2182.04 L1052.55,2180.18 L1052.66,2177.9 L1052.83,2176.87 L1054.46,2171.41 L1051.54,2160.45 L1041.37,2142.86 L1038.45,2124.45 L1039.08,2122.72 L1039.25,2121.69 L1039.15,2120.67 L1038.57,2119.04 L1037.16,2117.01 L1030.98,2110.41 L1030.32,2109.91 L1018.24,2103.01 L1016.97,2103.73 L1016,2104.29 L1014.36,2104.91 L1012.49,2105.26 L1010.28,2105.05 L972.395,2093.54 L970.822,2092.77 L968.621,2090.38 L937.091,2091.46 L939.8,2090.63 L935.992,2073.22 L935.302,2070.53 L934.395,2068.07 L933.949,2067.24 L924.035,2052.06 L923.014,2050.72 L918.32,2045.11 L916.298,2043.65 L914.721,2042.88 L914.731,2040.69 L915.774,2034.85 L920.111,2022.16 L920.962,2020.71 L923.722,2018.9 L925.845,2015.18 L926.517,2013.5 L928.881,2005.22 L929.041,2004.15 L928.732,1997.82 L928.481,1998.04 L928.481,1998.04"/>
  </g>
  <g font-family="MS Shell Dlg 2" stroke-linejoin="bevel" stroke="#000000" fill="none" stroke-width="1" transform="matrix(11.8081,0,0,11.8081,339.713,120.859)" stroke-opacity="1" font-weight="400" stroke-linecap="square" font-size="32.8125" font-style="normal"/>
  <g font-family="MS Shell Dlg 2" stroke-linejoin="bevel" stroke="#000000" fill="none" stroke-width="1" transform="matrix(11.8081,0,0,11.8081,339.713,120.859)" stroke-opacity="1" font-weight="400" stroke-linecap="square" font-size="32.8125" font-style="normal"/>
  <g font-family="MS Shell Dlg 2" stroke-linejoin="bevel" stroke="#000000" fill="none" stroke-width="1" transform="matrix(11.8081,0,0,11.8081,339.713,120.859)" stroke-opacity="1" font-weight="400" stroke-linecap="square" font-size="32.8125" font-style="normal"/>
  <g font-family="MS Shell Dlg 2" stroke-linejoin="bevel" stroke="#000000" fill="none" stroke-width="1" transform="matrix(1,0,0,1,0,0)" stroke-opacity="1" font-weight="400" stroke-linecap="square" font-size="32.8125" font-style="normal"/>
  <g font-family="MS Shell Dlg 2" stroke-linejoin="bevel" stroke="#000000" fill="none" stroke-width="1" transform="matrix(11.8081,0,0,11.8081,339.713,120.859)" stroke-opacity="1" font-weight="400" stroke-linecap="square" font-size="32.8125" font-style="normal"/>
  <g font-family="MS Shell Dlg 2" stroke-linejoin="bevel" stroke="#000000" fill="none" stroke-width="1" transform="matrix(11.8081,0,0,11.8081,339.713,120.859)" stroke-opacity="1" font-weight="400" stroke-linecap="square" font-size="32.8125" font-style="normal"/>
  <g font-family="MS Shell Dlg 2" stroke-linejoin="bevel" stroke="#000000" fill="none" stroke-width="1" transform="matrix(1,0,0,1,0,0)" stroke-opacity="1" font-weight="400" stroke-linecap="square" font-size="32.8125" font-style="normal"/>
 </g>
 <metadata id="qgismetadata">
  <rdf:RDF>
   <cc:Work>
    <dc:format>image/svg+xml</dc:format>
    <dc:title></dc:title>
    <dc:date>2019-01-25T13:08:25</dc:date>
    <dc:identifier></dc:identifier>
    <dc:description></dc:description>
    <dc:creator>
     <cc:Agent>
      <dc:title>Eric Armijo</dc:title>
     </cc:Agent>
    </dc:creator>
    <dc:publisher>
     <cc:Agent>
      <dc:title>QGIS 3.4.3-Madeira</dc:title>
     </cc:Agent>
    </dc:publisher>
    <dc:subject>
     <rdf:Bag/>
    </dc:subject>
   </cc:Work>
  </rdf:RDF>
 </metadata>
</svg>
