<?xml version="1.0" encoding="UTF-8" standalone="no"?>
<!-- Created with Inkscape (http://www.inkscape.org/) -->

<svg
   xmlns:dc="http://purl.org/dc/elements/1.1/"
   xmlns:cc="http://creativecommons.org/ns#"
   xmlns:rdf="http://www.w3.org/1999/02/22-rdf-syntax-ns#"
   xmlns:svg="http://www.w3.org/2000/svg"
   xmlns="http://www.w3.org/2000/svg"
   xmlns:sodipodi="http://sodipodi.sourceforge.net/DTD/sodipodi-0.dtd"
   xmlns:inkscape="http://www.inkscape.org/namespaces/inkscape"
   width="11in"
   height="8.5in"
   viewBox="0 0 279.4 215.9"
   version="1.1"
   id="svg8"
   inkscape:version="0.92.4 (5da689c313, 2019-01-14)"
   sodipodi:docname="Departamentos ordenados por tamaño.svg"
   inkscape:export-filename="C:\temp\OneDrive\LAB\geomat\qgis\otros\Departamentos ordenados por tamaño.png"
   inkscape:export-xdpi="299.95465"
   inkscape:export-ydpi="299.95465">
  <defs
     id="defs2" />
  <sodipodi:namedview
     id="base"
     pagecolor="#ffffff"
     bordercolor="#666666"
     borderopacity="1.0"
     inkscape:pageopacity="0.0"
     inkscape:pageshadow="2"
     inkscape:zoom="1.2720588"
     inkscape:cx="528"
     inkscape:cy="408"
     inkscape:document-units="mm"
     inkscape:current-layer="layer1"
     showgrid="false"
     units="in"
     inkscape:window-width="2560"
     inkscape:window-height="1315"
     inkscape:window-x="-13"
     inkscape:window-y="-13"
     inkscape:window-maximized="1"
     showguides="false">
    <inkscape:grid
       type="xygrid"
       id="grid3983" />
  </sodipodi:namedview>
  <metadata
     id="metadata5">
    <rdf:RDF>
      <cc:Work
         rdf:about="">
        <dc:format>image/svg+xml</dc:format>
        <dc:type
           rdf:resource="http://purl.org/dc/dcmitype/StillImage" />
        <dc:title></dc:title>
      </cc:Work>
    </rdf:RDF>
  </metadata>
  <g
     inkscape:label="Capa 1"
     inkscape:groupmode="layer"
     id="layer1"
     transform="translate(0,-81.1)">
    <g
       style="font-style:normal;font-weight:400;font-size:32.8125px;font-family:'MS Shell Dlg 2';fill:none;fill-rule:evenodd;stroke:#000000;stroke-width:1;stroke-linecap:square;stroke-linejoin:bevel;stroke-opacity:1"
       font-weight="400"
       font-size="32.8125"
       font-style="normal"
       id="g3794"
       transform="matrix(0.08466653,0,0,0.08466653,-6.2629132,44.64183)" />
    <g
       style="font-style:normal;font-weight:400;font-size:32.8125px;font-family:'MS Shell Dlg 2';fill:none;fill-rule:evenodd;stroke:#000000;stroke-width:1;stroke-linecap:square;stroke-linejoin:bevel;stroke-opacity:1"
       font-weight="400"
       font-size="32.8125"
       font-style="normal"
       id="g3796"
       transform="matrix(0.08466653,0,0,0.08466653,-6.2629132,44.64183)" />
    <g
       style="font-style:normal;font-weight:400;font-size:32.8125px;font-family:'MS Shell Dlg 2';fill:none;fill-rule:evenodd;stroke:#000000;stroke-width:1;stroke-linecap:square;stroke-linejoin:bevel;stroke-opacity:1"
       transform="matrix(0.99975085,0,0,0.99975085,-6.2629132,44.64183)"
       font-weight="400"
       font-size="32.8125"
       font-style="normal"
       id="g3798" />
    <g
       style="font-style:normal;font-weight:400;font-size:32.8125px;font-family:'MS Shell Dlg 2';fill:none;fill-rule:evenodd;stroke:#000000;stroke-width:1;stroke-linecap:square;stroke-linejoin:bevel;stroke-opacity:1"
       transform="matrix(0.08464545,0,0,0.08464545,-6.2629132,44.64183)"
       font-weight="400"
       font-size="32.8125"
       font-style="normal"
       id="g3800" />
    <g
       style="font-style:normal;font-weight:400;font-size:32.8125px;font-family:'MS Shell Dlg 2';fill:none;fill-rule:evenodd;stroke:#000000;stroke-width:1;stroke-linecap:square;stroke-linejoin:bevel;stroke-opacity:1"
       transform="matrix(0.08464545,0,0,0.08464545,-6.2629132,44.64183)"
       font-weight="400"
       font-size="32.8125"
       font-style="normal"
       id="g3806" />
    <g
       style="font-style:normal;font-weight:400;font-size:32.8125px;font-family:'MS Shell Dlg 2';fill:none;fill-rule:evenodd;stroke:#000000;stroke-width:1;stroke-linecap:square;stroke-linejoin:bevel;stroke-opacity:1"
       transform="matrix(0.99975085,0,0,0.99975085,-6.2629132,44.64183)"
       font-weight="400"
       font-size="32.8125"
       font-style="normal"
       id="g3808" />
    <g
       style="font-style:normal;font-weight:400;font-size:32.8125px;font-family:'MS Shell Dlg 2';fill:none;fill-rule:evenodd;stroke:#000000;stroke-width:1;stroke-linecap:square;stroke-linejoin:bevel;stroke-opacity:1"
       transform="matrix(0.99975085,0,0,0.99975085,-6.2629132,44.64183)"
       font-weight="400"
       font-size="32.8125"
       font-style="normal"
       id="g3810" />
    <g
       style="font-style:normal;font-weight:400;font-size:32.8125px;font-family:'MS Shell Dlg 2';fill:none;fill-rule:evenodd;stroke:#000000;stroke-width:1;stroke-linecap:square;stroke-linejoin:bevel;stroke-opacity:1"
       transform="matrix(0.99975085,0,0,0.99975085,-6.2629132,44.64183)"
       font-weight="400"
       font-size="32.8125"
       font-style="normal"
       id="g3812" />
    <g
       style="font-style:normal;font-weight:400;font-size:32.8125px;font-family:'MS Shell Dlg 2';fill:none;fill-rule:evenodd;stroke:#000000;stroke-width:1;stroke-linecap:square;stroke-linejoin:bevel;stroke-opacity:1"
       transform="matrix(0.99975085,0,0,0.99975085,-6.2629132,44.64183)"
       font-weight="400"
       font-size="32.8125"
       font-style="normal"
       id="g3814" />
    <g
       style="font-style:normal;font-weight:400;font-size:32.8125px;font-family:'MS Shell Dlg 2';fill:none;fill-rule:evenodd;stroke:#000000;stroke-width:1;stroke-linecap:square;stroke-linejoin:bevel;stroke-opacity:1"
       transform="matrix(0.99975085,0,0,0.99975085,22.499408,54.874542)"
       font-weight="400"
       font-size="32.8125"
       font-style="normal"
       id="g3816" />
    <g
       style="font-style:normal;font-weight:400;font-size:32.8125px;font-family:'MS Shell Dlg 2';fill:none;fill-rule:evenodd;stroke:#000000;stroke-width:1;stroke-linecap:square;stroke-linejoin:bevel;stroke-opacity:1"
       transform="matrix(0.99975085,0,0,0.99975085,22.499408,54.874542)"
       font-weight="400"
       font-size="32.8125"
       font-style="normal"
       id="g3822" />
    <g
       style="font-style:normal;font-weight:400;font-size:32.8125px;font-family:'MS Shell Dlg 2';fill:none;fill-rule:evenodd;stroke:#000000;stroke-width:1;stroke-linecap:square;stroke-linejoin:bevel;stroke-opacity:1"
       transform="matrix(0.99975085,0,0,0.99975085,22.499408,54.874542)"
       font-weight="400"
       font-size="32.8125"
       font-style="normal"
       id="g3824" />
    <g
       style="font-style:normal;font-weight:400;font-size:32.8125px;font-family:'MS Shell Dlg 2';fill:#000000;fill-opacity:0;fill-rule:evenodd;stroke:none;stroke-width:1;stroke-linecap:square;stroke-linejoin:bevel"
       transform="matrix(0.08464545,0,0,0.08464545,22.499408,54.874542)"
       font-weight="400"
       font-size="32.8125"
       font-style="normal"
       id="g3828">
      <rect
         width="2509"
         x="0"
         y="0"
         height="2267"
         id="rect3826" />
    </g>
    <path
       id="path3830"
       d="m 101.2875,231.42669 -0.21561,0.65563 0.0707,0.83 0.1025,0.19911 0.0925,0.30632 0.0248,0.11781 0.1773,0.96078 0.0925,0.62676 0.12076,1.46855 -0.48244,1.5257 -0.0359,0.0931 -0.0978,0.0672 -0.39009,0.71336 -0.35403,0.91306 -0.018,0.41942 0.0155,0.19204 0.047,0.22444 0.0952,0.31456 0.0431,0.0954 0.15599,0.31692 0.47013,0.94958 0.0984,0.0978 0.6686,0.39761 2.22315,1.44146 0.47126,0.3723 1.04854,1.24823 0.0719,0.10368 0.0483,0.0984 0.0294,0.096 -0.0536,0.65504 -0.77109,0.0383 -0.27097,-0.0425 -0.0736,-0.002 -0.11841,0.0389 -0.45299,0.29101 -0.0365,0.1019 -0.002,0.0825 0.0312,0.29041 -0.007,0.096 -0.0389,0.10722 -0.11428,0.20087 -1.3743,2.03641 -0.12724,0.18497 -0.62206,0.66035 -0.25035,0.21619 -0.27098,0.21089 -0.0648,0.0719 -0.0383,0.10722 -0.002,0.1508 0.0153,0.20322 0.0301,0.10899 0.0789,0.0842 0.0795,0.0707 0.1614,0.11134 0.0872,0.0783 0.0719,0.0901 0.19616,0.26155 0.1885,0.28334 1.10274,1.74542 0.17025,0.28923 0.0371,0.0954 0.16199,0.55549 0.14491,0.47833 0.17142,0.50071 0.0589,0.0978 0.0919,0.0819 0.0395,0.0218 0.20971,0.0613 0.1025,0.0566 0.60262,0.4371 0.0789,0.0707 0.0318,0.0489 0.0265,0.10957 0.0813,0.75637 -0.01,0.0601 -0.0289,0.0471 -0.45535,0.6521 -0.27216,-0.52074 -0.0736,-0.0377 -0.34755,0.0436 -0.18203,0.10545 -0.023,0.066 -0.007,0.0825 -0.0648,0.0854 -0.15846,0.0978 -0.43297,0.13784 -0.10427,0.0306 -0.13784,0.0153 -0.14138,-0.01 -0.0683,-0.0212 -0.36993,-0.16671 -0.1025,-0.0512 -0.18673,-0.14079 -0.18262,-0.248 -0.0248,-0.11487 -0.37406,-0.56138 -0.0789,-0.0819 -1.01049,-0.34107 -0.0917,-0.01 -0.518139,-0.0136 -0.11482,0.0253 -0.37488,0.18497 -0.0962,0.0536 -0.6101,0.42354 -0.0855,0.0778 -0.168177,0.15787 -0.320753,0.31633 -0.01162,0.129 0.09124,0.20736 0.04099,0.1561 6.96e-4,0.0819 -0.05143,0.0725 -0.120465,-0.0236 -1.118237,-0.5985 -0.582352,-0.35462 -0.08365,-0.40234 -0.04593,-0.12311 -0.875184,-1.02558 -0.44016,-0.29865 -0.799718,-0.63973 -0.835245,-0.89598 -0.481094,-0.64385 -0.261662,-0.31987 -0.619702,-0.57258 -0.960303,-0.67743 -0.666239,-0.30219 -0.206294,0.0742 -0.261606,0.0672 -0.09508,-0.0342 -0.516795,-0.61205 -0.156514,-0.25506 -0.109685,-0.20677 -0.0158,-0.0825 -0.150682,-0.0524 -0.06855,-0.0153 -0.266143,-0.0395 -0.257897,-0.0206 -0.330468,0.0389 -0.183377,0.0412 -0.104737,0.0241 -0.195687,0.0825 -0.187212,0.11839 -0.264605,0.20264 -0.308205,0.25802 -0.343955,0.31044 -0.124119,0.11192 -0.181373,0.13785 -0.09879,0.0595 -0.06263,0.0259 -0.138963,0.0165 -0.134369,-0.0253 -0.702643,-0.0583 -1.288885,0.0654 -0.309145,0.0477 -0.06389,-0.17202 -0.04969,-0.11722 -0.505661,-1.1157 -0.05734,-0.10367 -0.05171,-0.0895 -0.09507,-0.15198 -0.467079,-0.59732 -0.245697,-0.30573 -0.218605,-0.26979 -0.166535,-0.16199 -0.295358,-0.27393 -0.139137,-0.11251 -0.248175,-0.15669 -0.170244,-0.0789 -0.636669,-0.45947 -0.04551,-0.0347 -0.08906,-0.0778 0.09914,-0.0707 0.137898,-0.0801 0.696046,-0.37406 0.548606,-0.29336 -0.611873,-2.82872 -0.05115,-0.17731 -0.256066,-0.38761 -0.401042,-0.50012 -0.608742,-0.81704 -0.0309,-0.0901 0.02979,-0.0942 0.645326,-1.30125 0.08771,-0.11192 0.08895,-0.0512 0.327998,0.002 0.650566,-0.0153 0.107918,-0.0241 0.105266,-0.0265 0.214951,-0.10309 0.103916,-0.0978 0.101083,-0.11193 0.106978,-0.22208 0.0428,-0.10779 0.02443,-0.10722 0.143555,-1.23881 0.03821,-0.36582 -0.03876,-0.0901 -0.290292,-0.51072 -0.232454,-1.23705 -0.07499,-0.8995 -0.03995,-0.15022 -0.785111,-1.39963 -0.117994,-0.20087 -0.307906,-0.27981 -0.02359,-0.12312 -0.08312,-2.52358 0.105092,-0.27038 0.333064,-0.39586 0.104382,-0.11487 0.198694,-0.18497 0.09708,-0.0754 0.41677,-0.28983 0.494053,0.5119 1.070106,0.98906 0.09408,0.0642 0.09996,0.089 0.588309,0.5284 0.420061,0.50071 0.05999,0.0895 0.08288,0.19086 0.104382,0.37171 0.08341,0.21796 0.04398,0.0901 0.25766,0.33342 0.24411,0.31397 0.172771,0.18143 1.491532,1.54809 0.206586,0.1561 0.396442,0.27627 0.550958,0.33459 0.261606,0.13077 0.452938,0.17437 0.231562,0.076 0.249943,0.0677 0.815508,0.17731 0.331359,0.0365 0.336418,0.0112 0.349021,-0.0318 0.424662,-0.11605 0.730564,-0.2097 0.835892,-0.24977 1.437333,-0.46772 0.473905,-0.23563 0.310502,-0.16847 0.104911,-0.086 0.09962,-0.0919 0.06249,-0.0937 0.131301,-0.32811 0.461184,-1.42025 -6.96e-4,-0.06 -0.08977,-0.205 -0.02491,-0.0954 0.0151,-0.0742 0.03347,-0.0966 0.31133,-0.63973 0.491345,-0.93721 0.72373,-0.0677 3.140456,-0.41883 0.76308,-0.13254 0.18321,-0.0466 v 0"
       inkscape:connector-curvature="0"
       style="font-style:normal;font-weight:400;font-size:32.8125px;font-family:'MS Shell Dlg 2';vector-effect:none;fill:#d1d1d1;fill-opacity:1;fill-rule:evenodd;stroke:#232323;stroke-width:0.18089595;stroke-linecap:square;stroke-linejoin:bevel;stroke-opacity:1" />
    <path
       id="path3832"
       d="m 193.61779,229.05259 0.87519,1.02558 0.0459,0.12311 0.0837,0.40234 0.58235,0.35462 1.11824,0.59849 0.12046,0.0236 0.0514,-0.0725 -6.9e-4,-0.0819 -0.041,-0.1561 -0.0913,-0.20736 0.0116,-0.12901 0.32076,-0.31632 0.16818,-0.15787 0.0855,-0.0778 0.6101,-0.42354 0.0962,-0.0536 0.37488,-0.18498 0.11481,-0.0253 0.51815,0.0136 0.0917,0.01 1.01049,0.34108 0.0789,0.0819 0.37406,0.56139 0.0248,0.11487 0.18261,0.248 0.18674,0.14078 0.10249,0.0512 0.36994,0.16671 0.0683,0.0212 0.14138,0.01 0.13784,-0.0153 0.10426,-0.0306 0.43297,-0.13784 0.15847,-0.0978 0.0648,-0.0854 0.007,-0.0825 0.023,-0.066 0.18203,-0.10544 0.34755,-0.0436 0.0736,0.0377 0.27216,0.52074 0.20793,0.10073 0.0583,0.0954 0.0171,0.19733 -0.005,0.10132 -0.0248,0.14315 -0.009,0.14255 0.0371,0.11487 0.23976,0.60969 0.0554,0.0901 0.0578,0.0677 1.32011,1.4827 0.85298,0.92955 0.27862,0.78758 0.0942,0.0901 0.10191,0.0241 0.29689,0.0395 0.0966,0.005 0.10427,-0.0112 0.0931,-0.0636 0.0984,-0.0854 0.0778,-0.1019 0.0672,-0.13196 0.0306,-0.11545 0.0436,-0.19499 0.005,-0.0931 0.002,-0.096 -0.008,-0.10956 -0.0189,-0.11487 0.0177,-0.0937 0.0831,-0.099 0.10426,-0.0442 1.3042,0.0342 -0.0259,0.27215 -0.0524,0.43886 -0.10898,0.73516 -0.0583,0.36227 -0.002,0.26568 0.17967,2.32683 0.19499,2.46349 0.0236,0.62206 -0.0212,0.53488 0.0165,0.82528 0.0112,0.12312 0.0236,0.10132 0.0365,0.10426 0.0919,0.17732 0.12252,0.27391 0.0165,0.11487 0.0778,0.64386 -0.0171,0.34048 0.01,0.42472 0.12783,2.17603 0.0218,0.35933 0.0189,0.11486 0.0878,0.0571 0.11428,0.0241 1.21467,0.12724 0.12135,-0.003 0.0901,-0.0442 0.74811,-0.53369 0.98611,0.55431 0.0642,0.0631 0.0884,0.0489 0.11605,0.0301 3.09498,0.009 1.53688,-0.004 0.34108,-0.002 3.0667,-0.0253 1.71066,-0.0177 0.33872,0.005 -0.66035,0.89303 0.0124,0.58966 0.0182,1.18757 0.007,0.67684 0.02,1.87265 -0.15963,0.008 -2.21433,0.003 h -0.85238 l -2.89882,0.004 h -1.00142 l -7.83994,-0.0189 -0.85238,-0.006 -0.16436,-0.0124 -0.53134,-0.42177 -0.2209,-0.31692 -0.0672,-0.0707 -0.94192,-0.21795 -0.0866,0.19263 -0.0194,0.12075 -0.006,0.18909 0.003,0.0601 0.0389,0.74046 -0.12488,0.80173 -0.01,0.0601 -0.0377,0.099 -0.059,0.0801 -0.066,0.0719 -0.12842,0.0748 -0.0459,0.017 -1.10922,-0.0653 -0.11605,-0.026 -0.0984,-0.0377 -1.08507,-0.43709 -0.72397,-0.63796 -0.22149,-0.25566 -0.44593,-0.50248 -0.0542,-0.0159 -0.49305,-0.1237 -0.0672,-0.002 -0.0542,0.009 -0.0436,0.0253 -0.0353,0.033 -0.0282,0.0389 -0.21383,0.46595 -0.0548,0.15139 -0.0194,0.12076 0.02,0.17849 -0.0177,0.0548 -0.11959,0.3664 -0.0224,0.0466 -0.0637,0.0719 -0.0869,0.0507 -0.28788,0.0389 -0.18062,-0.0365 -0.26431,-0.14785 -0.27586,-0.25448 -0.12288,-0.14904 -1.54502,-0.76579 -0.72803,-0.0943 -0.0539,0.0118 -0.0303,0.0389 -0.0652,0.13784 -0.0173,0.0548 -0.019,0.12135 0.003,0.0601 -0.0205,0.5767 -0.0681,0.85121 -0.14056,1.37136 -0.1809,1.39374 -0.0689,1.25118 -0.022,-0.0678 -0.0778,-0.0589 -0.7867,-0.58436 -1.00408,-0.96961 -0.0968,-0.10544 -0.0577,-0.0789 -0.16771,-0.36759 -0.0537,-0.1449 -0.009,-0.24918 0.0138,-1.42437 0.0134,-0.29984 0.0359,-0.17318 0.25577,-0.78878 0.0828,-1.33777 0.004,-0.0683 0.0213,-0.12135 0.44269,-1.29595 0.20311,-0.41766 0.0304,-0.0389 0.13543,-0.27864 0.1303,-0.28452 0.0797,-0.20146 0.13361,-0.41882 0.009,-0.12371 -0.0137,-0.0548 -0.35604,-1.41377 -0.1369,-0.52192 -0.0599,-0.21324 -0.11882,-0.34402 -0.0411,-0.15846 -0.0308,-0.16376 -0.003,-0.0607 0.007,-0.20323 0.019,-0.12076 0.41076,-1.56163 0.0358,-0.0335 0.52145,-0.35521 0.126,-0.0813 0.18827,-0.0795 0.48881,-0.10486 0.28204,-0.0477 0.11917,-0.0153 0.12713,0.001 0.254,-0.009 0.17873,-0.0182 0.0543,-0.0118 0.25059,-0.0825 0.0465,-0.02 0.9071,-0.50424 0.37877,-0.22679 0.19805,-0.14727 0.10539,-0.0972 0.65416,-0.70688 0.0948,-0.11016 0.11787,-0.15787 0.0587,-0.0854 0.13843,-0.20441 0.10721,-0.17142 0.0124,-0.033 0.003,-0.0383 -0.61888,-0.87772 -0.0313,-0.0389 -0.25324,-0.87006 0.0376,-0.37111 -0.0143,-0.11782 -0.30377,-0.69039 -0.0503,-0.0901 -0.40511,-0.35991 -0.0372,-0.0318 -0.15499,-0.0507 -0.5311,-0.0265 -0.17838,0.0182 -0.14508,0.0559 -0.16794,0.10603 -0.10392,0.10014 -0.0535,0.0141 -0.76579,-0.043 -0.0699,-0.006 -0.0929,-0.0318 -1.40346,-0.63207 -0.17784,-0.10486 -0.51703,-0.30985 -0.0662,-0.0719 -0.0167,-0.0471 -0.0688,-0.26037 -0.99836,-1.23587 -0.22378,-0.20087 -0.18715,-0.49364 -0.0409,-0.11723 0.007,-0.0825 0.38118,-0.71631 -0.12005,-1.10391 -0.006,-0.0466 0.0324,-0.10191 0.0333,-0.0471 0.294,-0.27038 0.0491,-0.0389 0.1945,-0.11781 0.0489,-0.0389 0.0643,-0.086 0.0814,-0.15493 0.0202,-0.0607 0.0111,-0.14844 -0.014,-0.0683 -0.0303,-0.10898 -0.0873,-0.0783 -0.15233,-0.0501 -1.48057,-0.21796 -0.24882,-1.27475 -0.39544,-0.90834 0.0644,-0.77169 2.00248,0.46006 0.63137,0.22209 0.13402,0.0312 0.0681,0.002 0.047,-0.0141 0.11293,-0.0978 v 0"
       inkscape:connector-curvature="0"
       style="font-style:normal;font-weight:400;font-size:32.8125px;font-family:'MS Shell Dlg 2';vector-effect:none;fill:#d1d1d1;fill-opacity:1;fill-rule:evenodd;stroke:#232323;stroke-width:0.18089595;stroke-linecap:square;stroke-linejoin:bevel;stroke-opacity:1" />
    <path
       id="path3834"
       d="m 109.77206,156.03327 0.10344,-0.0943 0.0982,-0.10574 0.0715,-0.0999 0.0118,-0.11275 -0.004,-0.10155 -0.13984,-0.51962 0.11922,-0.90511 0.26803,-0.91259 0.0255,-0.10197 0.0214,-0.20894 -0.0258,-0.10397 -0.2735,-0.80061 -0.0367,-0.10379 -0.30733,-0.51738 0.14026,-1.56151 0.0704,-0.18768 0.10209,-0.0563 0.8373,-0.3052 0.43132,-0.11286 0.4841,-0.42637 -0.0829,-0.5562 -0.0152,-0.12877 0.21489,-0.96354 0.0758,-0.21231 0.0935,-0.10002 0.097,-0.037 0.54024,-0.10292 0.0974,-0.0177 0.0947,-0.004 0.10308,0.01 1.23181,0.001 1.4566,-0.91972 0.40139,-0.42708 0.57517,-1.13119 0.0121,-0.12635 0.1624,-0.77263 0.98216,-1.17891 0.0482,-1.12789 -0.0541,0.0143 -0.0623,0.009 -0.057,-0.0131 -0.0409,-0.027 -0.0276,-0.0409 -0.006,-0.0603 0.024,-0.0414 0.0404,-0.0278 0.67089,-0.43466 0.14315,-0.0617 0.13012,-0.009 0.17119,0.034 0.45088,0.0944 0.58936,-0.1921 1.04389,-0.90086 0.11039,-0.10244 0.9745,-1.16017 1.19587,-0.73923 0.12141,-0.0832 0.11546,-0.15994 0.0879,-0.18438 0.1746,-0.24264 0.13726,-0.13813 0.0729,-0.0609 0.0891,-0.05 0.55643,-0.0786 0.0495,0.16718 -0.008,0.0631 -0.0504,0.14838 -0.0213,0.0495 -0.0723,0.12942 -0.18596,0.16046 -0.16759,0.0332 -0.0626,0.0981 0.11116,1.3171 0.0227,0.1177 0.46825,1.2903 0.50789,0.83495 0.0682,0.0653 0.0832,0.11894 0.0737,0.20882 0.15552,0.85133 0.001,0.17819 -0.0132,0.0522 -0.0535,0.0853 -0.34472,0.58383 -0.48287,0.90581 -0.0796,0.20082 0.097,0.95323 0.042,0.16412 0.40204,1.19752 0.26844,0.74789 0.0847,0.12105 0.071,0.0679 0.0408,0.0271 0.0487,0.0188 0.12983,0.004 0.24029,-0.0375 0.17059,0.0315 0.0516,0.0216 0.0408,0.0271 0.0681,0.0653 0.0301,0.0408 0.52027,0.8951 -0.0157,0.055 -0.17266,0.38507 -0.11929,0.28876 -0.079,0.25831 0.067,0.27905 0.0901,0.11716 0.0761,0.0597 0.20099,0.14097 0.15969,0.0455 0.0616,-0.0772 0.0738,-0.60086 0.0452,-0.0908 0.077,-0.0666 0.0605,0.0245 0.0353,0.0353 0.47397,0.52551 0.0191,0.0465 0.17943,0.51673 0.0807,0.7093 0.18727,0.87024 0.085,0.19127 0.16329,0.18243 0.14332,0.0592 0.78582,0.0849 0.52056,-0.009 0.12954,0.007 0.16759,0.0372 0.0459,0.0216 0.12464,0.0787 0.0653,0.0735 0.24071,0.51644 0.21053,0.46183 0.0219,0.0464 0.0326,0.0354 1.10863,0.54401 0.0948,0.0405 0.90422,0.27975 0.0624,0.005 0.15197,1.19941 0.0271,0.0409 0.72279,0.71401 0.16259,0.13131 0.10249,0.07 0.205,0.0647 0.77404,0.1316 0.52722,-0.0311 0.60615,0.0602 1.23646,0.23592 0.0483,0.019 0.0677,0.0682 0.0842,0.12023 0.0347,0.0355 0.0919,0.0463 0.72692,0.0987 0.0619,0.006 0.14609,-0.0571 0.19499,-0.15781 0.27097,-0.34331 0.36816,-0.19575 0.33873,-0.14073 1.21701,0.10073 1.89976,0.92178 0.0919,0.11764 0.023,0.1085 -0.001,0.16819 0.4742,0.4868 0.20323,0.14244 0.61264,0.34402 0.12606,0.0171 0.63502,0.0205 0.11015,-0.0275 0.1078,-0.096 0.12901,-0.14533 0.0807,-0.0548 0.43827,-0.25235 0.25801,-0.12377 0.0642,-0.009 0.53311,0.14373 0.0778,0.0603 0.0271,0.041 0.0182,0.12612 -0.009,0.18573 0.0177,0.11823 0.0942,0.3862 0.0483,0.0876 0.50837,0.86181 0.19734,0.13378 0.74576,0.46742 0.51072,0.41506 0.71631,0.62677 0.68274,-0.37736 0.0578,-0.0159 0.0577,0.008 0.13371,0.0759 0.25448,0.2232 0.0277,0.0384 v 0.0658 l -0.0377,0.16435 0.009,0.0658 0.0306,0.0301 2.17073,0.9768 0.33282,0.13207 0.52074,0.0205 0.52133,-0.0397 0.16258,-0.0532 0.10898,-0.0857 0.0831,-0.0546 0.16966,-0.0379 0.17436,0.0197 0.79936,0.26295 0.0966,0.0414 0.0148,0.0444 0.006,0.25979 0.23034,0.86934 0.79877,0.89904 0.28511,0.13143 0.0542,0.0838 0.0783,0.0604 0.14197,0.0582 0.10662,0.17035 0.23504,0.24217 0.0901,0.0475 0.10898,0.0284 0.0995,0.0376 0.033,0.0332 0.0212,0.0506 0.0353,0.23233 0.16258,0.45794 0.0895,0.10974 0.0784,0.0637 0.1402,0.008 0.0896,0.0317 0.12135,-0.0219 0.24445,-0.0974 0.12902,-0.0103 0.25094,0.0219 0.0519,-0.009 0.1396,-0.0639 0.17261,-0.0363 0.23326,-0.11069 0.12371,-0.0158 0.13137,0.006 0.27332,-0.004 0.11781,-0.0212 0.10309,-0.0349 -2.83402,1.57453 -1.06386,0.66942 -2.4741,1.38013 -3.02782,1.71031 -2.70207,1.53912 -1.74247,1.04884 -1.71949,1.0009 -3.65047,2.10509 -1.11394,0.35386 -1.19168,0.32464 -1.41908,0.30431 0.11958,0.10368 0.0624,0.21896 0.17555,0.64862 0.0383,0.2136 -0.005,0.0932 -0.16965,2.06964 -0.0371,0.0933 0.004,0.12335 0.23445,0.62925 0.6144,1.36211 0.0566,0.0957 0.7652,1.1891 0.0719,0.10933 0.9213,1.38891 0.0854,0.10385 0.45299,0.43456 0.12489,0.10368 0.0954,0.006 0.94133,0.48775 0.11428,0.0713 0.10132,0.0842 0.36464,0.58554 0.0424,0.096 0.004,0.56433 0.0136,0.0937 0.0424,0.0901 0.35109,0.36346 0.0925,0.0548 0.11722,0.0518 0.1296,0.0301 -0.39998,0.13194 -1.85381,-0.086 -1.6759,-0.0683 -3.24991,-0.12252 -2.7592,-0.0837 -0.3558,-0.008 -0.60969,-0.0141 -0.96902,-0.0559 -0.53429,-0.10249 -0.23091,-0.0654 -0.1832,0.0466 -0.76309,0.13254 -3.14045,0.41882 -0.72373,0.0677 -0.49135,0.93721 -0.31132,0.63973 -0.0335,0.0966 -0.0151,0.0742 0.0249,0.0954 0.0898,0.205 7e-4,0.0601 -0.46119,1.42025 -0.1313,0.32811 -0.0625,0.0937 -0.0996,0.0919 -0.10491,0.086 -0.3105,0.16847 -0.47391,0.23564 -1.43733,0.46772 -0.83589,0.24976 -0.73057,0.20971 -0.42466,0.11605 -0.34902,0.0318 -0.33642,-0.0112 -0.33135,-0.0365 -0.81551,-0.1773 -0.24995,-0.0677 -0.23156,-0.076 -0.45294,-0.17437 -0.2616,-0.13077 -0.55096,-0.33459 -0.39644,-0.27627 -0.20659,-0.15611 -1.49152,-1.54808 -0.17278,-0.18143 -0.24411,-0.31397 -0.25766,-0.33342 -0.044,-0.0901 -0.0834,-0.21796 -0.10439,-0.37171 -0.0829,-0.19086 -0.06,-0.0895 -0.42006,-0.5007 -0.58831,-0.5284 -0.1,-0.0889 -0.0941,-0.0642 -1.07011,-0.98905 -0.49405,-0.5119 -0.26202,-0.27097 -0.31957,-0.30985 -0.69251,-0.61087 -1.29301,-1.36287 -0.10816,-0.0776 -0.11534,-0.0445 -0.18749,-0.0459 -0.10221,-0.0503 -0.093,-0.13284 -0.10256,-0.20411 -0.0102,-0.10969 -0.0858,-1.00931 -0.41718,-0.75301 -0.40216,-0.66264 -0.52221,-0.77846 -0.0796,-0.1111 -0.10078,-0.097 -0.1,-0.064 -0.12312,-0.0113 -0.11734,0.0106 -0.10868,0.0378 -0.10928,0.0159 -0.13619,-0.003 -0.10202,-0.0255 -0.43852,-0.29083 -0.0849,-0.11098 -0.15004,-0.42024 -0.0286,-0.22473 -0.002,-0.12088 0.0168,-0.10203 0.11045,-0.49411 0.0301,-0.0996 0.0219,-0.24499 -0.056,-0.40286 -0.0504,-0.11717 -0.11433,-0.0994 -0.27993,-0.22532 -0.31285,-0.26584 -0.0931,-0.10533 -0.0716,-0.0975 -0.0527,-0.0979 -0.0873,-0.21266 -0.17909,-0.58088 v -1.15251 l -0.20882,-1.48835 0.36181,-0.96072 -0.0318,-0.11487 -0.10215,-0.84725 -0.0712,-1.04849 0.34295,-2.29855 0.19327,-0.58619 0.0386,-0.0941 0.0788,-0.0977 0.2037,-0.0285 0.10021,-0.098 0.79613,-1.15747 0.0421,-0.19581 -0.14362,-0.0634 -0.10238,-0.0119 -0.10038,-0.0559 -0.0426,-0.12565 -0.19457,-0.94999 -0.004,-0.0961 0.0168,-0.10745 0.077,-0.21566 0.539,-0.86399 0.10592,-0.098 0.1121,-0.0569 0.20564,-0.0832 0.10068,-0.0924 0.7037,-0.88001 0.50242,-0.70877 0.84408,-0.74705 0.10255,0.023 0.0787,-0.13855 0.18609,-0.65381 0.59107,-2.20059 0.22485,-0.9947 -0.0259,-0.10397 -0.14762,-0.67603 0.054,-1.4424 0.009,-0.10173 0.0337,-0.0938 0.0992,-0.0818 v 0"
       inkscape:connector-curvature="0"
       style="font-style:normal;font-weight:400;font-size:32.8125px;font-family:'MS Shell Dlg 2';vector-effect:none;fill:#d1d1d1;fill-opacity:1;fill-rule:evenodd;stroke:#232323;stroke-width:0.18089595;stroke-linecap:square;stroke-linejoin:bevel;stroke-opacity:1" />
    <path
       id="path3836"
       d="m 184.34848,139.9944 0.34284,-0.0325 1.44276,-0.72397 0.0772,-0.0594 0.0688,-0.073 0.0579,-0.0727 0.19581,-0.3508 0.0908,-0.18897 0.14338,-0.39639 0.10474,-0.44516 0.0525,-0.0781 0.13249,-0.1402 0.15722,-0.12147 0.10161,-0.0653 0.0966,-0.0378 0.091,-0.0513 0.43297,-0.28364 0.0603,-0.0919 0.0575,-0.10839 0.0191,-0.12695 -0.0258,-0.21961 -0.0209,-0.23067 -4.1e-4,-0.30532 0.008,-0.13496 0.0404,-0.14938 0.0388,-0.0943 0.0926,-0.11187 0.1068,-0.0763 0.13119,-0.0768 0.23598,-0.12276 0.21519,-0.0811 0.11846,-0.0352 0.42589,-0.1015 0.65435,-0.19916 0.10744,-0.046 0.18508,-0.0941 0.44175,-0.2775 0.13648,-0.2334 0.016,-0.0686 1.12342,0.49642 1.27675,0.57976 1.72245,0.75678 1.64168,0.69292 1.56145,0.64816 2.35858,1.10362 0.6128,0.33353 -0.0992,0.0818 -0.0338,0.0938 -0.009,0.10173 -0.054,1.4424 0.14762,0.67602 0.0259,0.10397 -0.22485,0.9947 -0.59107,2.2006 -0.18609,0.65381 -0.0787,0.13855 -0.10255,-0.023 -0.84409,0.74706 -0.50241,0.70877 -0.7037,0.88001 -0.10068,0.0924 -0.20564,0.0832 -0.1121,0.0569 -0.10592,0.098 -0.539,0.86399 -0.077,0.21566 -0.0168,0.10744 0.004,0.0961 0.19456,0.95 0.0426,0.12565 0.10038,0.0559 0.10238,0.0119 0.14362,0.0634 -0.0421,0.19581 -0.79613,1.15746 -0.1002,0.098 -0.2037,0.0285 -0.0788,0.0977 -0.0386,0.0941 -0.19328,0.58618 -0.34296,2.29855 0.0712,1.04849 0.10215,0.84726 0.0318,0.11487 -0.36181,0.96071 0.20883,1.48835 v 1.15252 l 0.17908,0.58088 0.0873,0.21265 0.0527,0.0979 0.0716,0.0975 0.0931,0.10533 0.31286,0.26584 0.27993,0.22532 0.11433,0.0994 0.0505,0.11716 0.056,0.40287 -0.0219,0.24499 -0.0301,0.0996 -0.11045,0.49411 -0.0168,0.10203 0.003,0.12087 0.0286,0.22473 0.15005,0.42025 0.0849,0.11098 0.4385,0.29082 0.10203,0.0255 0.13619,0.003 0.10928,-0.0159 0.10868,-0.0378 0.11734,-0.0106 0.12311,0.0113 0.1,0.064 0.10079,0.097 0.0796,0.11109 0.52221,0.77846 0.40216,0.66265 0.41718,0.75301 0.0858,1.00931 0.0102,0.10968 0.10256,0.20412 0.093,0.13284 0.1022,0.0502 0.1875,0.0459 0.11534,0.0445 0.10815,0.0776 1.29302,1.36286 0.69251,0.61087 0.31957,0.30985 0.26201,0.27098 -0.41676,0.28982 -0.0971,0.0754 -0.1987,0.18497 -0.10438,0.11487 -0.33306,0.39586 -0.10509,0.27038 0.0831,2.52358 0.0236,0.12311 0.30791,0.27981 0.11799,0.20088 0.78511,1.39962 0.04,0.15022 0.075,0.89951 0.23245,1.23705 0.29029,0.51072 0.0388,0.0901 -0.0382,0.36581 -0.14355,1.23882 -0.0244,0.10721 -0.0428,0.1078 -0.10698,0.22208 -0.10108,0.11192 -0.10391,0.0978 -0.21495,0.10308 -0.10527,0.0265 -0.10792,0.0242 -0.65057,0.0153 -0.32799,-0.002 -0.089,0.0512 -0.0877,0.11192 -0.64533,1.30126 -0.0297,0.0942 0.0309,0.0901 0.60875,0.81704 0.40104,0.50012 0.25607,0.38761 0.0511,0.17731 0.61187,2.82872 -0.5486,0.29335 -0.69605,0.37406 -0.1379,0.0801 -0.0991,0.0707 -0.0665,-0.0483 -0.16134,-0.14727 -0.29194,-0.34284 -0.13838,-0.18673 -0.12176,-0.26921 -0.0981,-0.15198 -0.11357,-0.12665 -0.1422,-0.11251 -0.0882,-0.0501 -0.19051,-0.0318 -0.0739,-0.001 -0.26255,0.0554 -0.12588,0.0359 -0.60539,0.18084 -0.50707,0.21207 -1.25902,0.76815 -0.0987,0.0654 -0.14009,0.0996 -0.1399,0.10485 -0.74953,0.63384 -0.47438,0.33577 -0.34779,0.22032 -0.41288,0.25506 -0.34231,0.22326 -0.13966,0.10486 -0.13413,0.11368 -0.0128,0.0141 -0.0148,0.0389 0.005,0.10132 0.0703,0.17437 0.13119,0.18674 0.0251,0.0542 0.0335,0.076 0.0248,0.14491 -0.046,0.16081 -0.10003,0.20912 -0.08,0.0654 -0.15316,0.086 -0.12293,0.0306 -0.17702,-0.02 -0.14939,-0.0707 -0.23062,-0.16141 -0.41429,-0.32458 -0.6507,-0.49482 -0.16393,-0.11428 -0.39674,-0.248 -0.10939,-0.0489 -1.19246,-0.496 -0.11416,-0.0301 -0.26025,-0.0619 -0.14273,-0.004 -0.67272,0.005 -0.60386,0.0118 -0.51096,0.0389 -0.35008,0.0324 -0.30926,0.0748 -0.13873,0.0424 -0.16683,0.0713 -0.32545,0.15551 -0.25702,0.14491 -0.12158,0.0836 -0.19304,0.16553 -0.18603,0.22031 -0.14768,0.18085 -0.41518,0.57669 -0.0709,0.10132 -0.0274,0.0536 -0.14491,0.18026 -0.11746,0.12488 -0.20518,0.1938 -0.62983,0.52369 -0.18821,0.13784 -0.30013,0.1832 -0.27268,0.12959 -0.30532,0.10074 -0.37918,0.10073 -0.13107,0.0236 -0.2427,0.0766 -0.11716,0.0454 -0.10403,0.0442 -0.3624,0.20795 -0.17501,0.10897 -0.50372,-0.0589 -0.11151,-0.0241 -1.41683,-0.3988 -0.0431,-0.0259 -0.0707,-0.0642 -0.0455,-0.0948 -0.0579,-0.14962 -0.0678,-0.20736 -0.0698,-0.34519 0.0117,-0.58495 -0.01,-0.12901 -0.015,-0.0548 -0.0428,-0.0949 -0.0656,-0.14137 -0.25247,-0.43533 -0.20159,-0.1779 -1.05302,-0.87123 -0.0706,-0.05 -0.12706,-1.23705 -0.0346,-0.77639 -0.0215,-0.47656 -0.3201,-0.29807 -0.56304,-0.50248 -0.62559,-0.0578 0.3307,-0.73221 0.23875,-0.30573 0.50755,-0.51957 0.11628,-0.0895 0.48545,-0.31398 0.0445,-0.0206 0.0505,0.006 0.11687,0.0842 0.0476,-0.007 0.37141,-0.31574 0.16671,-0.17613 0.0251,-0.0424 0.56468,-1.23411 0.0279,-0.0425 1.1686,-1.4874 0.70718,-0.65858 0.10809,-0.0282 0.0943,-0.0442 0.34689,-0.20617 0.12778,-0.0784 0.24187,-0.17025 0.0643,-0.0677 0.0803,-0.13313 -0.0521,-0.0707 -0.13408,-0.13725 -0.0407,-0.0294 -0.0606,-0.0695 -0.0253,-0.0489 -0.0378,-0.10367 -0.0472,-0.41765 -0.009,-0.12901 0.0513,-0.67684 0.39869,-0.54077 1.41937,-0.66683 0.13654,-0.0566 0.0313,-0.11664 -0.0113,-0.11782 -0.0124,-0.06 -0.0229,-0.0548 -0.0427,-0.0948 -0.0276,-0.0383 -0.071,-0.0666 -0.0763,-0.0612 -1.09356,-0.73162 -0.0435,-0.026 -0.0484,-0.0177 -0.0693,-0.001 -0.60386,0.0153 -0.0611,0.007 -0.0473,0.0236 -0.10061,0.10486 -0.0536,0.0813 -0.0417,0.0289 -0.061,0.008 -0.52899,-0.0612 -0.11263,-0.0241 -0.0459,-0.0206 -0.0842,-0.053 -0.0355,-0.0318 -0.0357,-0.0347 -0.44999,-0.43827 -0.0281,-0.0406 -0.0201,-0.0489 -2.10958,-5.16084 -0.0207,-0.0683 0.80685,-1.80238 0.58477,-1.12807 0.62642,-0.63549 0.0758,-0.0628 0.0534,-0.001 0.0539,0.0123 0.0976,0.0386 0.0616,0.006 0.0639,-0.0102 0.0532,-0.0125 0.0896,-0.0494 0.0593,-0.0788 0.007,-0.0471 0.003,-0.15716 -0.02,-0.0463 -0.32604,-0.3628 -0.26762,-0.28182 -0.95895,-0.75819 -0.80779,-0.98022 -0.0559,-0.0811 -0.0299,-0.10945 -0.002,-0.0688 0.12258,-1.4262 0.006,-0.0608 0.02,-0.0475 0.0258,-0.042 0.10149,-0.10491 0.13484,-0.0727 0.24659,-0.10067 0.57299,-0.80438 -0.006,-0.33058 0.027,-0.3756 0.0266,-0.11104 0.0438,-0.15828 0.0202,-0.0474 0.0514,-0.0841 1.06963,-0.94399 1.1749,-0.96237 0.0653,-0.0706 0.0284,-0.042 0.0177,-0.0473 6.9e-4,-0.0689 -0.0322,-0.10662 -0.11181,-0.16235 -0.0358,-0.0349 -0.0489,-0.0207 -0.0485,-0.004 -0.007,-0.78776 0.059,-0.10897 0.0994,-0.10445 0.0422,-0.0287 0.15722,-0.0509 0.17101,-0.0374 0.35857,-0.0615 0.46513,-0.0917 0.0478,-0.0232 0.0341,-0.034 0.0258,-0.042 0.006,-0.0608 -0.0234,-0.1839 -0.38979,-1.28747 -0.0454,-0.0953 -0.0251,-0.0407 -0.1154,-0.0935 -0.22349,-0.11834 -0.0951,-0.0389 -0.15357,-0.12006 -0.0637,-0.0728 -0.0864,-0.12176 -0.0481,-0.0897 -0.26455,-1.20542 -0.13307,-0.47597 -0.49182,-0.81415 0.37471,-0.63756 0.0424,-0.0285 0.0316,-0.0339 0.0286,-0.042 0.29843,-0.68226 0.15415,-0.52993 0.0104,-0.12423 -7e-4,-0.47373 -0.0538,-1.78642 -0.10079,-1.05255 -0.0202,-0.62206 0.005,-0.13231 0.031,-0.62877 -0.0855,-0.1908 -0.0347,-0.10385 -0.0241,-1.25825 0.007,-0.0635 0.0261,-0.042 0.45982,-0.56981 0.38449,-0.44392 0.0426,-0.0285 0.59455,-0.24198 0.4398,-0.89092 0.22756,-0.59425 0.66053,-0.84261 v 0"
       inkscape:connector-curvature="0"
       style="font-style:normal;font-weight:400;font-size:32.8125px;font-family:'MS Shell Dlg 2';vector-effect:none;fill:#d1d1d1;fill-opacity:1;fill-rule:evenodd;stroke:#232323;stroke-width:0.18089595;stroke-linecap:square;stroke-linejoin:bevel;stroke-opacity:1" />
    <path
       id="path3838"
       d="m 157.03611,234.44323 0.0891,0.0778 0.0455,0.0347 0.63667,0.45948 0.17023,0.0789 0.24818,0.15669 0.13914,0.11251 0.29536,0.27393 0.16653,0.16199 0.2186,0.26979 0.24571,0.30573 0.46707,0.59732 0.0951,0.15198 0.0517,0.0895 0.0573,0.10367 0.50566,1.1157 0.0497,0.11723 0.0639,0.17201 0.001,0.0736 -0.0295,0.1078 -0.0642,0.0783 -0.0777,0.0589 -0.20824,0.10309 -0.12252,0.0436 -0.11746,0.0383 -0.24859,0.0542 -0.11729,0.0466 -0.0827,0.0701 -0.0369,0.12193 -0.0578,0.76756 0.001,0.0736 0.0384,0.3399 0.044,0.10367 0.0597,0.0895 0.0724,0.0778 0.1012,0.0695 0.44452,0.17495 0.12294,-0.0159 0.10662,-0.0519 0.13053,-0.0324 0.27021,-0.006 0.66294,0.0919 0.0658,0.0147 0.0671,0.0701 -0.0299,0.089 -0.0614,0.0778 -0.0876,0.0813 -0.28493,0.18143 -0.10921,0.0519 -0.23988,0.076 -0.10373,0.0571 -0.49223,0.30632 -0.0665,0.0866 -0.006,0.0742 -0.0923,1.13042 -0.005,0.12901 0.0391,0.11781 0.42072,0.85062 0.12665,0.17319 0.0776,0.0836 0.90958,0.71514 0.1005,0.0583 0.12924,0.0501 0.89309,0.30927 0.20441,0.0182 0.30054,-0.0112 0.47343,0.13902 0.11594,0.0447 0.12158,0.0719 0.0854,0.0889 0.0436,0.0954 0.10986,0.28865 0.0754,0.25389 0.0558,0.19674 0.0614,0.21855 0.12924,0.34932 0.10904,0.24741 0.16835,0.35108 0.1964,0.31516 0.25106,0.31398 0.19192,0.22149 0.69628,0.71513 0.14433,0.19498 0.0381,0.0954 0.0174,0.10132 -6.9e-4,0.10191 -0.0297,0.0937 -0.11087,0.073 -0.0905,0.0459 -0.19222,0.0418 -1.59291,0.16907 -0.34896,0.0312 -0.10939,0.005 -0.20376,-0.0182 -0.1855,-0.0129 -0.21077,0.0236 -0.34072,0.0507 -0.24423,0.0483 -0.10874,0.0436 -0.33047,0.16848 -0.16724,0.11074 -0.18744,0.14668 -0.44787,0.4153 -0.37724,0.41176 -0.4011,0.38761 -0.082,0.0672 -0.35456,0.23563 -1.68621,0.81233 -0.97144,0.46418 -1.5535,0.71631 -3.71904,1.70654 -1.26178,0.57611 -0.34938,0.073 -1.02098,-0.29572 -1.63385,-0.56609 -0.99912,-0.29454 -1.01179,-0.26685 -1.01072,-0.30455 -0.88791,-0.27745 -0.7718,-0.30278 -0.68538,-0.19381 0.19003,-0.27215 0.90345,-0.97903 0.10074,-0.0365 0.0329,-0.0335 -0.002,-0.0689 -0.0345,-0.0984 -0.0651,-0.0748 -0.37741,-0.36816 -0.10251,-0.0984 -0.48339,-0.40057 -0.0826,-0.0495 -0.23368,-0.11075 -0.0503,-0.0177 -0.21866,-0.0483 -0.24111,-0.0943 -0.16518,-0.0907 -0.0349,-0.0318 -0.0775,-0.12724 -0.76679,-0.79819 -0.40399,-0.34225 -1.08076,-0.67448 -0.0731,-0.0666 -0.0551,-0.0778 -0.58142,-0.99494 0.28817,-0.70688 -0.18797,-0.35992 -0.49835,-1.00319 -0.25383,-0.82941 -0.0605,-0.46655 -0.0486,-0.50777 0.0482,-0.52251 0.0203,-0.17731 -0.0173,-0.12371 -0.0299,-0.10603 -0.0653,-0.14138 -0.0503,-0.0866 -0.0277,-0.0401 -0.14851,-0.1938 -0.0352,-0.0318 -0.0933,-0.11251 -0.0477,-0.0866 -0.0175,-0.0548 -0.129,-1.02381 -0.0259,-0.45947 -0.01,-0.0601 -0.0427,-0.0948 -0.0631,-0.0725 -0.13873,-0.13313 -0.043,-0.0265 -0.14143,-0.13019 -0.0857,-0.12135 -0.078,-0.12665 -0.0227,-0.0459 -0.007,-0.0636 0.0173,-0.11368 0.047,-0.0895 0.0582,-0.0766 0.0331,-0.0365 0.11564,-0.0895 0.0412,-0.0289 0.0935,-0.0447 0.20093,-0.14138 0.0331,-0.0342 0.0528,-0.0819 0.0232,-0.17673 -0.007,-0.20381 -0.0312,-0.009 0.17501,-0.10898 0.3624,-0.20794 0.10403,-0.0442 0.11716,-0.0454 0.2427,-0.0766 0.13107,-0.0236 0.37918,-0.10073 0.30532,-0.10073 0.27268,-0.1296 0.30013,-0.18319 0.18821,-0.13785 0.62983,-0.52368 0.20518,-0.1938 0.11746,-0.12489 0.14491,-0.18026 0.0273,-0.0536 0.0709,-0.10132 0.41517,-0.5767 0.14769,-0.18085 0.18603,-0.22031 0.19303,-0.16552 0.12159,-0.0837 0.25701,-0.14492 0.32546,-0.15551 0.16683,-0.0713 0.13872,-0.0424 0.30926,-0.0748 0.35009,-0.0324 0.51096,-0.0389 0.60385,-0.0118 0.67272,-0.005 0.14274,0.004 0.26024,0.0619 0.11416,0.0301 1.19246,0.496 0.10939,0.0489 0.39675,0.248 0.16393,0.11428 0.65069,0.49482 0.41429,0.32458 0.23063,0.1614 0.14938,0.0707 0.17702,0.02 0.12294,-0.0306 0.15316,-0.086 0.08,-0.0654 0.10002,-0.20912 0.046,-0.16081 -0.0248,-0.14492 -0.0335,-0.076 -0.0251,-0.0542 -0.13118,-0.18673 -0.0703,-0.17437 -0.005,-0.10132 0.0148,-0.0389 0.0128,-0.0141 0.13413,-0.11369 0.13967,-0.10485 0.34231,-0.22326 0.41288,-0.25507 0.34778,-0.22031 0.47438,-0.33577 0.74954,-0.63384 0.1399,-0.10486 0.14008,-0.0996 0.0987,-0.0654 1.25902,-0.76814 0.50707,-0.21207 0.60539,-0.18084 0.12588,-0.0359 0.26256,-0.0554 0.0739,0.001 0.1905,0.0318 0.0882,0.0501 0.14221,0.11251 0.11356,0.12666 0.0981,0.15198 0.12177,0.2692 0.13837,0.18674 0.29194,0.34284 0.16135,0.14726 0.0665,0.0483 v 0"
       inkscape:connector-curvature="0"
       style="font-style:normal;font-weight:400;font-size:32.8125px;font-family:'MS Shell Dlg 2';vector-effect:none;fill:#d1d1d1;fill-opacity:1;fill-rule:evenodd;stroke:#232323;stroke-width:0.18089595;stroke-linecap:square;stroke-linejoin:bevel;stroke-opacity:1" />
    <path
       id="path3840"
       d="m 44.917319,235.81927 0.02067,-0.0764 0.03507,-0.036 0.09479,-0.0422 0.741225,-0.15069 0.06236,-0.009 0.557145,-0.069 0.122525,0.0125 0.226378,0.0525 0.0627,0.008 0.130716,0.004 0.05693,-0.0143 0.400451,-0.21536 1.955124,-0.68031 0.157342,-0.0509 0.841487,-0.19982 1.740062,-0.12514 0.136012,-0.001 0.0492,0.0215 0.02749,0.0381 0.03083,0.10943 0.02484,0.0409 0.0572,0.0132 0.06799,-5.7e-4 0.966727,-0.19728 0.461003,-0.17648 0.05428,-0.0141 0.05449,0.0133 0.397388,0.37247 0.213719,0.19573 0.306313,0.24163 0.04913,0.0188 0.05999,0.008 0.25006,0.009 0.05985,-0.006 0.04329,-0.0278 0.466779,-0.49153 0.02129,-0.0468 0.0014,-0.13162 0.02554,-0.24417 0.191387,-0.22073 0.488346,-0.39803 0.199808,0.0258 0.111689,0.0266 0.05442,0.0133 0.147328,0.0593 0.07923,0.0543 0.09879,0.10895 0.297363,0.52698 0.357797,0.64443 0.04691,0.0901 0.0167,0.0547 -0.01239,0.17551 -0.125879,0.28321 -0.0833,0.12941 -0.04544,0.0908 -0.07476,0.19788 -0.01816,0.11525 6.96e-4,0.13705 0.03786,0.75082 0.02791,0.10945 0.02213,0.0492 0.153869,0.25659 0.07746,0.1968 0.03062,0.10944 0.130653,0.81592 0.01726,0.12324 -0.0072,0.13161 -0.01058,0.0549 -0.19092,0.62359 -0.03459,0.10174 -0.05922,0.0772 -0.10226,0.10215 -0.116108,0.0913 -0.116102,0.0886 -0.204644,0.20983 -0.06194,0.0745 -0.07234,0.1376 -0.06625,0.20606 6.54e-4,0.003 -0.556443,0.0786 -0.08906,0.05 -0.07287,0.0609 -0.13725,0.13814 -0.174602,0.24264 -0.08794,0.18438 -0.115461,0.15993 -0.121404,0.0832 -1.195875,0.73922 -0.9745,1.16018 -0.110395,0.10243 -1.043891,0.90087 -0.589367,0.1921 -0.45087,-0.0944 -0.171184,-0.034 -0.130124,0.009 -0.143146,0.0617 -0.670894,0.43467 -0.04036,0.0278 -0.02401,0.0414 0.0063,0.0603 0.02756,0.0409 0.04092,0.0271 0.057,0.0131 0.06236,-0.009 0.05407,-0.0143 -0.04823,1.12789 -0.982155,1.17891 -0.162408,0.77263 -0.01211,0.12635 -0.575169,1.13119 -0.40139,0.42708 -1.456597,0.91972 -1.231805,-0.001 -0.103088,-0.01 -0.09467,0.004 -0.09738,0.0177 -0.540234,0.10291 -0.09696,0.0369 -0.09348,0.10003 -0.07575,0.2123 -0.214895,0.96355 0.01517,0.12876 0.08294,0.55621 -0.484094,0.42637 -0.431321,0.11286 -0.837305,0.3052 -0.102086,0.0563 -0.07039,0.18768 -0.140257,1.56151 0.307315,0.51738 0.03668,0.10379 0.273506,0.8006 0.02582,0.10398 -0.02136,0.20894 -0.02554,0.10197 -0.268023,0.91259 -0.119233,0.90511 0.139847,0.51961 0.0042,0.10156 -0.01183,0.11275 -0.07151,0.0999 -0.0982,0.10574 -0.103442,0.0942 -0.612813,-0.33353 -2.358581,-1.10362 -1.561445,-0.64816 -1.641684,-0.69292 -1.722441,-0.75678 -1.276749,-0.57976 -1.123421,-0.49641 -0.01601,0.0685 -0.136485,0.2334 -0.441747,0.27751 -0.185082,0.0941 -0.107451,0.046 -0.654338,0.19917 -0.425894,0.1015 -0.118467,0.0352 -0.215188,0.0811 -0.235982,0.12276 -0.131182,0.0768 -0.106797,0.0763 -0.09261,0.11186 -0.03883,0.0942 -0.04036,0.14939 -0.0082,0.13496 4.18e-4,0.30531 0.02088,0.23068 0.02582,0.2196 -0.01907,0.12695 -0.05748,0.10839 -0.06034,0.0919 -0.432972,0.28364 -0.09101,0.0513 -0.09661,0.0378 -0.10162,0.0653 -0.157224,0.12146 -0.132476,0.14021 -0.05247,0.0781 -0.104737,0.44515 -0.143382,0.39639 -0.09083,0.18897 -0.195806,0.3508 -0.0579,0.0727 -0.06883,0.073 -0.07723,0.0594 -1.442754,0.72396 -0.342842,0.0325 -0.03619,-0.0519 -0.214478,-0.40834 -0.383957,-0.74612 -0.133131,-0.27245 -0.876005,-1.69929 -0.455297,-0.88237 -0.429609,-0.81692 -0.05658,-0.10344 -0.294885,-0.47285 -0.303139,-0.47544 -0.137369,-0.20364 -0.390436,-0.61128 -0.303432,-0.4755 -1.124416,-1.76633 -0.34614,-0.54353 -0.346078,-0.5436 -1.861696,-2.92491 -0.690805,-1.08766 -0.689392,-1.09067 0.009,-0.006 0.264556,0.0108 0.52521,-0.0225 0.353385,-0.0378 0.06235,-0.01 0.313856,-0.10043 1.859288,0.0905 1.439984,0.13301 2.234755,0.44021 0.675543,0.47144 -0.02477,0.54283 6.96e-4,0.0523 0.05331,0.0843 0.04398,0.0267 0.103971,0.031 0.0627,0.007 0.558677,-0.0686 0.446458,-0.11045 0.330057,-0.0861 0.363747,-0.10851 0.135727,-0.0633 0.166473,-0.11322 0.202758,-0.20741 0.05554,-0.0836 0.08046,-0.0566 1.112871,-0.38361 0.446285,-0.12358 0.125176,0.0115 0.05978,-0.006 0.239984,-0.10609 0.231799,-0.11416 0.08318,-0.0564 0.0348,-0.0336 0.445219,-0.65145 0.988933,-1.47727 0.03911,-0.0969 0.01267,-0.0552 0.01044,-0.19269 0.02102,-0.0471 0.148978,-0.19499 0.190621,-0.15162 0.20447,-0.14085 0.343016,-0.14037 0.159757,-0.0521 1.405341,-0.0307 0.19852,0.002 0.174539,0.0331 0.101264,0.0397 0.299131,0.18225 0.412051,0.27398 0.06256,0.007 0.34779,-0.18945 0.266025,-0.74334 0.606744,-0.87743 0.03751,-0.0417 0.243993,-0.23716 0.518618,-0.23834 0.194623,-0.0852 0.580181,-0.31592 1.126657,-0.72438 0.08082,-0.056 0.02116,-0.047 -0.02965,-0.17813 -0.0286,-0.10951 0.0072,-0.0605 0.03222,-0.0362 0.108391,-0.029 0.124822,-0.0154 0.624824,-0.0688 0.07063,-7e-4 0.1091,0.026 0.20223,0.0742 0.10903,0.0232 0.117167,0.0122 0.909528,-0.53622 0.0754,-0.0641 0.258189,-0.22019 0.730974,-0.71473 0.201408,-0.20838 0.225313,-0.2608 0.02686,-0.0415 0.236455,-0.24443 0.110277,-0.1029 1.240344,-0.95873 0.27327,-0.14035 0.349439,-0.13293 0.05693,-0.0143 0.189682,-0.0844 0.09472,-0.0422 0.04858,-0.0225 0.08117,-0.0558 0.02937,-0.0415 0.04718,-0.15695 -0.0028,-0.039 v 0"
       inkscape:connector-curvature="0"
       style="font-style:normal;font-weight:400;font-size:32.8125px;font-family:'MS Shell Dlg 2';vector-effect:none;fill:#d1d1d1;fill-opacity:1;fill-rule:evenodd;stroke:#232323;stroke-width:0.18089595;stroke-linecap:square;stroke-linejoin:bevel;stroke-opacity:1" />
    <path
       id="path3842"
       d="m 244.68266,145.31841 0.30915,-0.0477 1.28888,-0.0654 0.70264,0.0583 0.13437,0.0253 0.13896,-0.0165 0.0626,-0.0259 0.0988,-0.0595 0.18138,-0.13784 0.12412,-0.11193 0.34395,-0.31044 0.30821,-0.25801 0.2646,-0.20264 0.18722,-0.1184 0.19568,-0.0825 0.10474,-0.0242 0.18338,-0.0412 0.33046,-0.0389 0.2579,0.0206 0.26615,0.0395 0.0685,0.0153 0.15069,0.0524 0.0158,0.0825 0.10969,0.20676 0.15651,0.25507 0.5168,0.61204 0.0951,0.0342 0.2616,-0.0671 0.2063,-0.0742 0.66624,0.30219 0.9603,0.67743 0.6197,0.57257 0.26167,0.31987 0.4811,0.64385 0.83524,0.89598 0.79972,0.63973 0.44015,0.29866 -0.11292,0.0978 -0.047,0.0141 -0.0681,-0.002 -0.13401,-0.0312 -0.63137,-0.22209 -2.00249,-0.46006 -0.0644,0.77168 0.39545,0.90835 0.24882,1.27475 1.48057,0.21796 0.15233,0.0501 0.0872,0.0783 0.0303,0.10899 0.014,0.0683 -0.0111,0.14844 -0.0201,0.0607 -0.0814,0.15493 -0.0643,0.086 -0.0489,0.0389 -0.19451,0.11781 -0.0491,0.0389 -0.29401,0.27038 -0.0333,0.0471 -0.0324,0.10191 0.006,0.0466 0.12004,1.10391 -0.38118,0.71631 -0.007,0.0825 0.0409,0.11723 0.18715,0.49364 0.22379,0.20087 0.99835,1.23587 0.0688,0.26037 0.0166,0.0471 0.0662,0.0719 0.51703,0.30985 0.17783,0.10485 1.40346,0.63208 0.0929,0.0318 0.0699,0.006 0.7658,0.043 0.0535,-0.0141 0.10392,-0.10014 0.16794,-0.10603 0.14509,-0.056 0.17837,-0.0182 0.5311,0.0265 0.15499,0.0507 0.0372,0.0318 0.40511,0.35992 0.0503,0.0901 0.30378,0.69039 0.0143,0.11781 -0.0376,0.37112 0.25324,0.87006 0.0313,0.0389 0.61888,0.87772 -0.003,0.0383 -0.0124,0.033 -0.1072,0.17142 -0.13844,0.20441 -0.0587,0.0854 -0.11788,0.15787 -0.0948,0.11016 -0.65416,0.70688 -0.10539,0.0972 -0.19804,0.14726 -0.37878,0.2268 -0.9071,0.50424 -0.0465,0.02 -0.25059,0.0825 -0.0543,0.0118 -0.17872,0.0182 -0.25401,0.009 -0.12713,-0.001 -0.11917,0.0153 -0.28204,0.0477 -0.48881,0.10485 -0.18827,0.0795 -0.126,0.0813 -0.52144,0.35521 -0.0358,0.0335 -0.41076,1.56163 -0.019,0.12075 -0.008,0.20324 0.003,0.0607 0.0308,0.16376 0.0411,0.15846 0.11882,0.34402 0.0599,0.21324 0.13689,0.52192 0.35604,1.41377 0.0137,0.0548 -0.009,0.1237 -0.1336,0.41883 -0.0797,0.20146 -0.13031,0.28452 -0.13543,0.27864 -0.0304,0.0389 -0.2031,0.41765 -0.44269,1.29596 -0.0213,0.12135 -0.004,0.0683 -0.0828,1.33777 -0.25577,0.78877 -0.0359,0.17319 -0.0134,0.29984 -0.0138,1.42437 0.009,0.24918 0.0537,0.1449 0.1677,0.36758 0.0578,0.0789 0.0968,0.10544 1.00407,0.96962 0.78671,0.58435 0.0778,0.0589 0.022,0.0678 0.0148,-0.0129 0.0182,0.37288 -0.009,0.0631 -0.13926,0.48776 -0.0396,0.099 -0.12505,0.21913 -0.16259,0.10663 -0.0501,0.0854 -0.25549,0.74753 -0.0615,0.34402 -5.8e-4,0.12901 0.0929,0.0454 0.11911,0.086 0.27651,0.33047 0.0601,0.0789 0.58401,0.89421 0.0263,0.0489 0.0534,0.14491 0.0406,0.15846 0.22432,1.02557 -0.15958,0.0488 -3.76103,0.11134 -0.538,0.0972 -0.70506,0.0566 -0.12812,-0.0141 -0.0539,-0.0159 -0.093,-0.0447 -0.45624,-0.32635 -0.51614,-0.64091 -0.55361,-0.70335 -1.41577,-0.97491 -1.09037,-0.40882 -0.26261,-0.0719 -0.10344,0.099 -0.0308,0.13254 -0.21,0.97904 -0.15811,0.75342 -0.0731,0.53429 -6.9e-4,0.066 -0.13507,0.38172 -0.34543,0.39998 -0.51968,0.18496 -0.85327,0.2857 -0.58677,0.18438 -0.5185,0.14668 -0.66654,0.0571 -0.4322,0.32104 -0.28305,1.4662 -0.0178,0.51426 -0.6878,0.27627 -0.69305,0.26508 -0.87105,0.47656 0.0541,0.49364 0.0597,0.50955 0.0123,0.17024 -0.99676,0.77227 -0.0246,0.0312 -0.50201,1.00908 -1.37896,0.34814 -1.50283,0.36817 -0.72102,0.17789 -1.97068,-0.16611 -0.77817,-0.46949 -0.10903,-1.13868 0.25177,-1.51626 0.0269,-0.1137 -0.39256,-1.14043 -0.0757,-0.1243 -0.39161,-1.17343 0.0754,-0.20028 0.0137,-0.12724 -0.0108,-0.25271 -0.01,-0.0548 -0.23115,-1.27239 -0.0169,-0.0489 -0.2672,-0.40704 -0.22733,-0.1243 -0.83395,-0.7652 -0.0163,-0.10427 -0.0297,-0.42825 0.002,-0.32517 -0.0251,-0.37052 -0.0356,-0.22444 -0.13496,-0.65917 -0.0488,-0.15256 -0.14645,-0.38585 -0.11298,-0.22207 -0.10574,-0.162 -0.24923,-0.29689 -0.13084,-0.14197 -0.0484,-0.0642 -0.10173,-3.06376 -0.40322,-0.61853 -1.87537,-2.85169 -0.0546,-0.003 -0.24771,0.0165 -0.2345,0.0301 -0.1971,-0.0153 -0.10727,-0.0318 -0.14969,-0.0612 -0.0871,-0.0519 -0.0697,-0.0666 -0.0671,-0.0689 -0.0742,-0.12725 0.003,-0.0194 -0.0227,-0.0294 -0.059,-0.20736 -0.0619,-1.26768 0.0164,-0.12135 0.0488,-0.0931 0.24359,-0.30278 0.0649,-0.0713 0.14597,-0.12901 0.29459,-0.1779 0.073,-0.0631 0.0273,-0.0395 0.0162,-0.0554 -0.005,-0.0607 -0.0248,-0.0406 -0.0647,-0.0719 -0.18432,-0.15905 -0.54359,-0.3505 -0.20252,-0.0789 -0.27245,-0.0784 -0.20747,-0.073 -0.14738,-0.0607 -0.23498,-0.1131 -0.21708,-0.12488 -0.12005,-0.0895 -0.26691,-0.28275 -0.14203,-0.19852 -0.10191,-0.1673 -0.0373,-0.0978 -0.042,-0.15846 -0.0241,-0.17024 0.008,-0.13549 0.038,-0.10015 0.0298,-0.0394 0.0703,-0.066 0.12742,-0.076 0.22472,-0.11251 -0.19804,-0.98787 -0.40263,-0.95842 -0.0927,-0.0466 -0.0401,-0.0289 -0.0649,-0.0695 -0.025,-0.043 -0.0373,-0.0984 0.003,-0.066 0.0162,-0.0559 0.0244,-0.0447 0.0597,-0.0789 0.0761,-0.0577 1.08153,-0.26862 0.29701,-0.0683 0.0624,-0.005 0.1756,0.0354 0.0527,0.0177 0.0628,0.009 0.0624,-0.005 0.0574,-0.15316 0.37471,-1.26061 -0.43556,-0.8035 -0.5704,-0.4577 -0.53894,-0.35934 -0.10026,-0.0377 -0.0401,-0.0289 -0.025,-0.0436 -0.005,-0.0601 0.0862,-0.22915 0.0371,-0.0589 0.0174,-0.0253 0.7364,-0.92778 0.26261,-0.41765 0.68538,0.1938 0.7718,0.30278 0.8879,0.27746 1.01073,0.30455 1.01179,0.26684 0.99912,0.29454 1.63385,0.5661 1.02098,0.29571 0.34938,-0.073 1.26178,-0.57611 3.71905,-1.70654 1.55349,-0.71631 0.97144,-0.46419 1.68621,-0.81232 0.35456,-0.23564 0.082,-0.0672 0.4011,-0.38761 0.37724,-0.41176 0.44787,-0.41529 0.18744,-0.14668 0.16724,-0.11074 0.33047,-0.16848 0.10875,-0.0436 0.24423,-0.0483 0.34071,-0.0507 0.21077,-0.0236 0.1855,0.0129 0.20376,0.0182 0.10939,-0.005 0.34896,-0.0312 1.59291,-0.16906 0.19222,-0.0418 0.0905,-0.0459 0.11087,-0.073 0.0296,-0.0937 7e-4,-0.10191 -0.0174,-0.10132 -0.0381,-0.0954 -0.14432,-0.19499 -0.69628,-0.71513 -0.19192,-0.22149 -0.25106,-0.31397 -0.1964,-0.31516 -0.16836,-0.35108 -0.10903,-0.24741 -0.12924,-0.34932 -0.0615,-0.21855 -0.0558,-0.19675 -0.0753,-0.25388 -0.10986,-0.28865 -0.0435,-0.0954 -0.0854,-0.089 -0.12159,-0.0719 -0.11592,-0.0447 -0.47344,-0.13903 -0.30054,0.0112 -0.20441,-0.0182 -0.89309,-0.30926 -0.12925,-0.0501 -0.10049,-0.0583 -0.90958,-0.71513 -0.0776,-0.0836 -0.12665,-0.17319 -0.42072,-0.85062 -0.0391,-0.11781 0.005,-0.12901 0.0923,-1.13043 0.006,-0.0742 0.0665,-0.0866 0.49223,-0.30632 0.10373,-0.0571 0.23987,-0.076 0.10921,-0.0518 0.28494,-0.18143 0.0876,-0.0813 0.0615,-0.0777 0.0299,-0.089 -0.0671,-0.0701 -0.0658,-0.0148 -0.66294,-0.0919 -0.2702,0.006 -0.13054,0.0324 -0.10662,0.0518 -0.12294,0.0159 -0.44451,-0.17495 -0.10121,-0.0695 -0.0724,-0.0778 -0.0596,-0.0895 -0.0441,-0.10367 -0.0384,-0.3399 -0.001,-0.0736 0.0578,-0.76756 0.037,-0.12194 0.0827,-0.0701 0.11728,-0.0465 0.24859,-0.0542 0.11746,-0.0383 0.12253,-0.0436 0.20823,-0.10309 0.0776,-0.0589 0.0642,-0.0783 0.0295,-0.10781 -0.001,-0.0736 v 0"
       inkscape:connector-curvature="0"
       style="font-style:normal;font-weight:400;font-size:32.8125px;font-family:'MS Shell Dlg 2';vector-effect:none;fill:#d1d1d1;fill-opacity:1;fill-rule:evenodd;stroke:#232323;stroke-width:0.18089595;stroke-linecap:square;stroke-linejoin:bevel;stroke-opacity:1" />
    <path
       id="path3844"
       d="m 44.790563,133.84344 0.12194,0.1485 0.06361,0.0743 0.428253,0.18614 0.164941,0.0414 0.190858,0.0102 2.233168,-0.28364 2.152461,-0.27951 0.332236,0.47355 0.444161,0.41765 1.520977,0.93875 0.149624,0.0587 0.127244,0.0104 0.253888,-0.007 0.657992,0.56144 0.88714,0.30491 0.967255,0.31704 0.114279,0.0752 0.819398,1.75855 -0.01239,0.0554 -0.153159,0.38984 -0.182612,0.29413 -0.13018,0.14396 -0.253304,0.15905 -0.0595,0.0761 -0.03361,0.10114 -0.127237,0.41819 -0.02297,0.17319 0.0083,0.0651 0.273918,1.09209 0.03535,0.10438 0.200288,0.27781 0.761664,1.57965 0.612047,1.38879 0.03828,0.82328 0.08718,2.04461 0.0277,1.21555 0.0035,0.56238 -0.322221,0.004 -0.884788,-0.0299 -1.790774,0.0288 1.246476,1.43486 2.006963,2.3673 0.344018,4.89323 0.0014,0.13431 0.190858,2.72681 0.510727,0.0347 0.96372,0.0554 4.50815,0.26037 0.410584,0.0236 4.929934,0.28923 4.110535,0.24211 0.930733,0.0536 0.100729,-0.003 0.13961,-0.0624 0.086,-0.053 0.06834,-0.073 0.05714,-0.0813 0.06716,-0.13313 0.04419,-0.0949 0.565503,0.0236 0.0094,0.27273 -0.0071,0.88479 -0.234451,1.0833 -0.123115,0.15964 -0.06242,0.0642 -0.315743,0.22974 -0.211478,0.19851 -0.120166,0.15906 -0.336954,0.47891 -0.04183,0.0954 -0.06069,0.2533 -0.01649,0.46536 0.07716,1.7089 0.01058,0.12901 0.01823,0.11604 0.0318,0.11075 0.0807,0.18615 0.05359,0.0836 0.04537,0.089 0.03709,0.1025 0.07423,0.3346 0.133716,0.95193 0.01002,0.12901 -0.0049,0.19557 -0.03828,0.51544 0.0524,0.35639 0.04711,0.2262 0.05066,0.0895 0.05359,0.0754 0.139603,0.13549 0.187914,0.0866 0.217958,0.0548 0.116045,0.0165 0.201464,0.0654 0.416471,0.27156 1.193459,0.84178 0.02944,0.0943 0.08954,0.21383 0.159054,0.16906 0.643851,0.41295 0.115462,0.0442 0.211471,0.0371 0.08895,-0.0413 0.743404,-0.34225 0.193808,0.15375 0.860633,0.78288 0.295122,0.27215 0.121348,0.13018 0.01357,0.0801 -0.202049,0.0689 -0.06597,0.0807 -0.103088,0.20323 0.179083,0.49246 0.239162,0.30632 0.06653,0.0683 0.08011,0.0389 -0.0112,0.10839 -0.03828,0.35992 0.0021,0.69333 1.228214,2.52417 0.541947,1.08448 -0.273917,0.35226 -0.06952,0.12725 -0.07717,0.20971 -0.658584,1.8968 -1.472672,4.26428 -0.01768,0.0654 0.420597,0.0512 0.06242,0.007 0.02241,0.20441 0.08011,1.08447 -0.678613,0.0182 -0.10544,0.20029 -0.341665,0.67507 -0.336356,0.67566 -1.055025,2.09591 -1.262377,2.50002 -0.335771,0.62619 0.161406,0.19144 2.25614,2.16131 0.0063,0.006 0.05658,0.0672 -0.42826,0.43356 -0.04238,0.0318 -0.08483,0.0495 -1.936278,1.09803 -0.464775,0.17319 0.209119,-0.47774 0.01712,-0.0548 0.04009,-0.30985 0.04948,-0.89009 -0.0094,-0.12135 -0.132539,-1.44793 -0.0056,-0.0607 -0.744586,-0.47243 -0.330468,-0.19086 -2.332129,-1.30656 -2.515923,-1.42084 -2.808685,-1.57576 -0.567278,-0.0459 -2.548319,-0.20853 -1.361342,-0.10956 -3.74001,-0.31457 -0.169061,-0.006 -0.235627,0.023 -0.04948,0.0519 -0.343434,0.0925 -3.454895,0.89421 -0.864759,0.22326 -0.911289,0.22855 -1.718913,0.28453 -5.259219,0.85709 -2.920027,0.47067 -0.689211,0.11016 -0.30396,0.78464 -0.695691,1.83201 -0.622653,1.66589 -1.775456,2.53065 -0.908345,1.31716 -0.338715,-0.005 -1.710666,0.0177 -3.0667,0.0253 -0.341074,0.002 -1.536886,0.004 -3.094976,-0.009 -0.116045,-0.0301 -0.08836,-0.0489 -0.06423,-0.0631 -0.986108,-0.55432 -0.748115,0.5337 -0.09013,0.0442 -0.121348,0.003 -1.214665,-0.12724 -0.114278,-0.0241 -0.08777,-0.0571 -0.01886,-0.11486 -0.02178,-0.35934 -0.127828,-2.17602 -0.01002,-0.42473 0.01712,-0.34048 -0.07776,-0.64385 -0.01649,-0.11487 -0.122525,-0.27392 -0.09189,-0.17731 -0.03654,-0.10427 -0.02359,-0.10132 -0.0112,-0.12311 -0.01649,-0.82529 0.02122,-0.53487 -0.02359,-0.62207 -0.194985,-2.46349 -0.179667,-2.32682 0.0021,-0.26568 0.05832,-0.36228 0.108983,-0.73516 0.0524,-0.43885 0.02589,-0.27215 -1.304202,-0.0342 -0.104264,0.0442 -0.08306,0.099 -0.01768,0.0937 0.01886,0.11487 0.0083,0.10957 -0.0021,0.096 -0.0049,0.0931 -0.04357,0.19498 -0.03062,0.11546 -0.06716,0.13195 -0.07776,0.10191 -0.09838,0.0854 -0.09307,0.0636 -0.104263,0.0112 -0.09661,-0.005 -0.296889,-0.0395 -0.101912,-0.0241 -0.09425,-0.0901 -0.278629,-0.78759 -0.852977,-0.92955 -1.320104,-1.48269 -0.05776,-0.0677 -0.0554,-0.0901 -0.239754,-0.60969 -0.03709,-0.11487 0.0094,-0.14256 0.02477,-0.14314 0.0049,-0.10132 -0.01712,-0.19734 -0.05832,-0.0954 -0.207936,-0.10074 0.455352,-0.6521 0.02888,-0.0471 0.01002,-0.0601 -0.08129,-0.75637 -0.02651,-0.10957 -0.0318,-0.0489 -0.07893,-0.0707 -0.602625,-0.43709 -0.102496,-0.0566 -0.20971,-0.0612 -0.03946,-0.0218 -0.0919,-0.0819 -0.05888,-0.0978 -0.171421,-0.50071 -0.144913,-0.47832 -0.161991,-0.5555 -0.03709,-0.0954 -0.170244,-0.28923 -1.102739,-1.74542 -0.188499,-0.28334 -0.196161,-0.26155 -0.07187,-0.0901 -0.08719,-0.0783 -0.161399,-0.11133 -0.07953,-0.0707 -0.07893,-0.0842 -0.03006,-0.10898 -0.01531,-0.20323 0.0021,-0.1508 0.03828,-0.10721 0.06479,-0.0719 0.270974,-0.21089 0.250352,-0.21619 0.622062,-0.66034 0.127236,-0.18497 1.374303,-2.03642 0.114278,-0.20087 0.0389,-0.10722 0.0071,-0.096 -0.03125,-0.29041 0.0021,-0.0825 0.03654,-0.1019 0.452993,-0.291 0.118405,-0.0389 0.07363,0.002 0.270973,0.0425 0.771095,-0.0383 0.05359,-0.65505 -0.02944,-0.096 -0.0483,-0.0984 -0.07187,-0.10368 -1.048547,-1.24824 -0.471254,-0.37229 -2.223153,-1.44146 -0.668598,-0.39762 -0.09838,-0.0978 -0.470133,-0.94958 -0.155985,-0.31692 -0.04308,-0.0954 -0.0952,-0.31456 -0.04698,-0.22444 -0.01552,-0.19204 0.01795,-0.41941 0.354033,-0.91307 0.390081,-0.71336 0.09778,-0.0671 0.03591,-0.0931 0.482445,-1.52569 -0.120758,-1.46855 -0.09248,-0.62677 -0.177309,-0.96078 -0.02478,-0.11781 -0.09248,-0.30632 -0.102497,-0.1991 -0.07069,-0.83001 0.215605,-0.65563 0.230916,0.0654 0.534284,0.10249 0.969023,0.0559 0.609688,0.0141 0.3558,0.008 2.759205,0.0837 3.249903,0.12252 1.675904,0.0683 1.853804,0.086 0.399984,-0.13194 -0.129595,-0.0301 -0.117229,-0.0518 -0.09248,-0.0548 -0.351088,-0.36346 -0.04238,-0.0901 -0.01357,-0.0937 -0.0042,-0.56433 -0.04238,-0.096 -0.364638,-0.58554 -0.101321,-0.0842 -0.114278,-0.0713 -0.941332,-0.48775 -0.09543,-0.006 -0.124884,-0.10368 -0.452993,-0.43456 -0.08542,-0.10385 -0.921304,-1.38891 -0.07187,-0.10933 -0.7652,-1.1891 -0.05658,-0.0957 -0.614399,-1.36211 -0.234451,-0.62925 -0.0035,-0.12335 0.03709,-0.0933 0.169654,-2.06964 0.0049,-0.0932 -0.03828,-0.2136 -0.175548,-0.64862 -0.06242,-0.21896 -0.119581,-0.10368 1.419072,-0.30431 1.191685,-0.32464 1.113935,-0.35386 3.650472,-2.10509 1.719497,-1.0009 1.74247,-1.04884 2.702069,-1.53912 3.027819,-1.71031 2.474098,-1.38013 1.063864,-0.66942 2.834017,-1.57453 v 0"
       inkscape:connector-curvature="0"
       style="font-style:normal;font-weight:400;font-size:32.8125px;font-family:'MS Shell Dlg 2';vector-effect:none;fill:#d1d1d1;fill-opacity:1;fill-rule:evenodd;stroke:#232323;stroke-width:0.18089595;stroke-linecap:square;stroke-linejoin:bevel;stroke-opacity:1" />
    <path
       id="path3846"
       d="m 240.07598,242.06182 0.0689,-1.25119 0.1809,-1.39374 0.14056,-1.37136 0.0681,-0.85121 0.0205,-0.5767 -0.003,-0.0601 0.019,-0.12135 0.0173,-0.0548 0.0652,-0.13784 0.0303,-0.0389 0.0539,-0.0118 0.72803,0.0943 1.54502,0.76579 0.12288,0.14904 0.27586,0.25448 0.26432,0.14785 0.18061,0.0365 0.28788,-0.0389 0.0869,-0.0507 0.0637,-0.0719 0.0224,-0.0465 0.11959,-0.36641 0.0177,-0.0548 -0.02,-0.17848 0.0194,-0.12077 0.0548,-0.15139 0.21383,-0.46595 0.0282,-0.0389 0.0354,-0.033 0.0436,-0.0253 0.0542,-0.009 0.0672,0.002 0.49305,0.12371 0.0542,0.0159 0.44593,0.50248 0.22149,0.25566 0.72397,0.63796 1.08507,0.43709 0.0984,0.0377 0.11604,0.026 1.10922,0.0653 0.0459,-0.0171 0.12842,-0.0748 0.066,-0.0719 0.059,-0.0801 0.0377,-0.099 0.01,-0.0601 0.12488,-0.80173 -0.0389,-0.74046 -0.003,-0.06 0.006,-0.1891 0.0194,-0.12075 0.0866,-0.19263 0.94192,0.21795 0.0672,0.0707 0.2209,0.31692 0.53134,0.42178 0.16436,0.0124 0.85239,0.006 7.83994,0.0189 h 1.00141 l 2.89882,-0.004 h 0.85238 l 2.21433,-0.003 0.15963,-0.008 0.0177,0.55667 -1.1157,3.64223 -0.86711,2.83755 -0.0401,0.13667 -0.10544,0.36464 -0.35697,1.1693 -0.71219,2.33684 -0.30632,1.00024 -0.089,0.1673 -0.10309,-0.0112 -0.0406,-0.0306 -0.96902,-0.79172 -0.22444,-0.31515 -0.053,-0.14549 -0.003,-0.0607 0.0466,-0.16141 -0.02,-0.26331 -0.0583,-0.36228 -0.0106,-0.0548 -0.0354,-0.096 -0.0383,-0.0778 -0.033,-0.0206 -0.0578,-0.001 -0.11134,-0.002 -0.51367,0.01 -2.24789,0.0277 -4.26251,0.0377 -0.85121,6e-4 -0.43473,-6e-4 -1.91566,-0.009 -0.47244,0.92719 -0.59201,1.53689 -0.61381,1.5899 -0.3882,0.55667 -0.0583,0.0801 -0.16965,0.16612 -0.073,0.0665 -0.033,0.0218 -0.12901,0.086 -0.0507,0.0854 -0.16553,0.32281 -0.0825,0.17849 -0.21796,0.70158 -0.0324,0.10721 -0.009,0.0601 -0.0271,0.71101 0.023,0.26567 -0.15375,0.77227 -0.13489,0.27804 -0.0748,0.1296 -0.12724,-0.0182 -0.0489,-0.0212 -0.0182,-0.0495 -0.0218,-0.21089 v -0.28436 l -0.0477,-0.46301 -0.0713,-0.25978 -0.023,-0.0413 -0.0671,-0.0707 -0.43179,-0.44829 -0.30043,-0.30984 -0.0335,-0.0354 -0.0182,-0.0495 -0.0218,-0.10956 0.006,-0.13431 0.01,-0.0607 0.096,-0.32162 -0.17201,-0.64563 -0.59909,-1.03617 -0.172,-1.08448 0.0371,-0.10191 0.01,-0.0607 -0.006,-0.0601 -0.0342,-0.096 -0.0831,-0.11958 -0.36405,-0.38879 -0.0389,-0.0294 -0.7116,-0.40645 -0.0748,0.0424 -0.0571,0.033 -0.0966,0.0365 -0.11016,0.0206 -0.13018,-0.0124 -2.2317,-0.67802 -0.0927,-0.0454 -0.12965,-0.14079 -1.85734,0.0636 0.15958,-0.0489 -0.22432,-1.02557 -0.0406,-0.15845 -0.0534,-0.14492 -0.0263,-0.0489 -0.584,-0.89421 -0.0601,-0.0789 -0.2765,-0.33047 -0.11912,-0.086 -0.0929,-0.0454 6e-4,-0.129 0.0614,-0.34402 0.25548,-0.74753 0.0501,-0.0854 0.16259,-0.10662 0.12506,-0.21914 0.0396,-0.099 0.13926,-0.48775 0.009,-0.0631 -0.0182,-0.37289 -0.0148,0.0129 v 0"
       inkscape:connector-curvature="0"
       style="font-style:normal;font-weight:400;font-size:32.8125px;font-family:'MS Shell Dlg 2';vector-effect:none;fill:#d1d1d1;fill-opacity:1;fill-rule:evenodd;stroke:#232323;stroke-width:0.18089595;stroke-linecap:square;stroke-linejoin:bevel;stroke-opacity:1" />
    <g
       style="font-style:normal;font-weight:400;font-size:32.8125px;font-family:'MS Shell Dlg 2';fill:none;fill-rule:evenodd;stroke:#000000;stroke-width:1;stroke-linecap:square;stroke-linejoin:bevel;stroke-opacity:1"
       transform="matrix(0.99975085,0,0,0.99975085,22.499408,54.874542)"
       font-weight="400"
       font-size="32.8125"
       font-style="normal"
       id="g3850" />
    <g
       style="font-style:normal;font-weight:400;font-size:32.8125px;font-family:'MS Shell Dlg 2';fill:none;fill-rule:evenodd;stroke:#000000;stroke-width:1;stroke-linecap:square;stroke-linejoin:bevel;stroke-opacity:1"
       transform="matrix(0.99975085,0,0,0.99975085,22.499408,54.874542)"
       font-weight="400"
       font-size="32.8125"
       font-style="normal"
       id="g3852" />
    <g
       style="font-style:normal;font-weight:400;font-size:32.8125px;font-family:'MS Shell Dlg 2';fill:none;fill-rule:evenodd;stroke:#000000;stroke-width:1;stroke-linecap:square;stroke-linejoin:bevel;stroke-opacity:1"
       transform="matrix(0.99975085,0,0,0.99975085,22.499408,54.874542)"
       font-weight="400"
       font-size="32.8125"
       font-style="normal"
       id="g3854" />
    <g
       style="font-style:normal;font-weight:400;font-size:32.8125px;font-family:'MS Shell Dlg 2';fill:none;fill-rule:evenodd;stroke:#000000;stroke-width:1;stroke-linecap:square;stroke-linejoin:bevel;stroke-opacity:1"
       font-weight="400"
       font-size="32.8125"
       font-style="normal"
       id="g3856"
       transform="matrix(0.08466653,0,0,0.08466653,-6.2629132,44.64183)" />
    <g
       style="font-style:normal;font-weight:400;font-size:32.8125px;font-family:'MS Shell Dlg 2';fill:none;fill-rule:evenodd;stroke:#000000;stroke-width:1;stroke-linecap:square;stroke-linejoin:bevel;stroke-opacity:1"
       transform="matrix(0.99975085,0,0,0.99975085,22.499408,54.874542)"
       font-weight="400"
       font-size="32.8125"
       font-style="normal"
       id="g3858" />
    <g
       style="font-style:normal;font-weight:400;font-size:32.8125px;font-family:'MS Shell Dlg 2';fill:none;fill-rule:evenodd;stroke:#000000;stroke-width:1;stroke-linecap:square;stroke-linejoin:bevel;stroke-opacity:1"
       transform="matrix(0.99975085,0,0,0.99975085,22.499408,54.874542)"
       font-weight="400"
       font-size="32.8125"
       font-style="normal"
       id="g3860" />
    <g
       style="font-style:normal;font-weight:400;font-size:32.8125px;font-family:'MS Shell Dlg 2';fill:none;fill-rule:evenodd;stroke:#000000;stroke-width:1;stroke-linecap:square;stroke-linejoin:bevel;stroke-opacity:1"
       font-weight="400"
       font-size="32.8125"
       font-style="normal"
       id="g3862"
       transform="matrix(0.08466653,0,0,0.08466653,-6.2629132,44.64183)" />
    <text
       xml:space="preserve"
       style="font-style:normal;font-weight:normal;font-size:10.58333302px;line-height:1.25;font-family:sans-serif;letter-spacing:0px;word-spacing:0px;fill:#000000;fill-opacity:1;stroke:none;stroke-width:0.26458332"
       x="56.158958"
       y="107.30751"
       id="text3955"><tspan
         sodipodi:role="line"
         id="tspan3953"
         x="56.158958"
         y="107.30751"
         style="font-style:normal;font-variant:normal;font-weight:bold;font-stretch:normal;font-family:sans-serif;-inkscape-font-specification:'sans-serif Bold';stroke-width:0.26458332">DEPARTAMENTOS DE BOLIVIA</tspan></text>
    <text
       xml:space="preserve"
       style="font-style:normal;font-variant:normal;font-weight:normal;font-stretch:normal;font-size:10.58333302px;line-height:1.25;font-family:sans-serif;-inkscape-font-specification:'sans-serif, Normal';font-variant-ligatures:normal;font-variant-caps:normal;font-variant-numeric:normal;font-feature-settings:normal;text-align:start;letter-spacing:0px;word-spacing:0px;writing-mode:lr-tb;text-anchor:start;fill:#000000;fill-opacity:1;stroke:none;stroke-width:0.26458332"
       x="84.862434"
       y="119.57929"
       id="text3959"><tspan
         sodipodi:role="line"
         id="tspan3957"
         x="84.862434"
         y="119.57929"
         style="font-style:normal;font-variant:normal;font-weight:bold;font-stretch:normal;font-size:7.05555534px;font-family:sans-serif;-inkscape-font-specification:'sans-serif Bold';stroke-width:0.26458332">ORDENADOS POR TAMAÑO</tspan></text>
    <text
       xml:space="preserve"
       style="font-style:normal;font-variant:normal;font-weight:normal;font-stretch:normal;font-size:10.58333302px;line-height:1.25;font-family:sans-serif;-inkscape-font-specification:'sans-serif, Normal';font-variant-ligatures:normal;font-variant-caps:normal;font-variant-numeric:normal;font-feature-settings:normal;text-align:start;letter-spacing:0px;word-spacing:0px;writing-mode:lr-tb;text-anchor:start;fill:#000000;fill-opacity:1;stroke:none;stroke-width:0.26458332"
       x="32.239403"
       y="214.63351"
       id="text3963"><tspan
         sodipodi:role="line"
         id="tspan3961"
         x="32.239403"
         y="214.63351"
         style="font-size:7.05555534px;stroke-width:0.26458332">Santa Cruz</tspan></text>
    <text
       xml:space="preserve"
       style="font-style:normal;font-variant:normal;font-weight:normal;font-stretch:normal;font-size:10.58333302px;line-height:1.25;font-family:sans-serif;-inkscape-font-specification:'sans-serif, Normal';font-variant-ligatures:normal;font-variant-caps:normal;font-variant-numeric:normal;font-feature-settings:normal;text-align:start;letter-spacing:0px;word-spacing:0px;writing-mode:lr-tb;text-anchor:start;fill:#000000;fill-opacity:1;stroke:none;stroke-width:0.26458332"
       x="125.1511"
       y="214.49789"
       id="text3963-4"><tspan
         sodipodi:role="line"
         id="tspan3961-0"
         x="125.1511"
         y="214.49789"
         style="font-size:7.05555534px;stroke-width:0.26458332">Beni</tspan></text>
    <text
       xml:space="preserve"
       style="font-style:normal;font-variant:normal;font-weight:normal;font-stretch:normal;font-size:10.58333302px;line-height:1.25;font-family:sans-serif;-inkscape-font-specification:'sans-serif, Normal';font-variant-ligatures:normal;font-variant-caps:normal;font-variant-numeric:normal;font-feature-settings:normal;text-align:start;letter-spacing:0px;word-spacing:0px;writing-mode:lr-tb;text-anchor:start;fill:#000000;fill-opacity:1;stroke:none;stroke-width:0.26458332"
       x="186.02859"
       y="213.93591"
       id="text3963-4-0"><tspan
         sodipodi:role="line"
         id="tspan3961-0-9"
         x="186.02859"
         y="213.93591"
         style="font-size:7.05555534px;stroke-width:0.26458332">La Paz</tspan></text>
    <text
       xml:space="preserve"
       style="font-style:normal;font-variant:normal;font-weight:normal;font-stretch:normal;font-size:10.58333302px;line-height:1.25;font-family:sans-serif;-inkscape-font-specification:'sans-serif, Normal';font-variant-ligatures:normal;font-variant-caps:normal;font-variant-numeric:normal;font-feature-settings:normal;text-align:start;letter-spacing:0px;word-spacing:0px;writing-mode:lr-tb;text-anchor:start;fill:#000000;fill-opacity:1;stroke:none;stroke-width:0.26458332"
       x="236.50058"
       y="214.0354"
       id="text3963-4-0-6"><tspan
         sodipodi:role="line"
         id="tspan3961-0-9-2"
         x="236.50058"
         y="214.0354"
         style="font-size:7.05555534px;stroke-width:0.26458332">Potosí</tspan></text>
    <text
       xml:space="preserve"
       style="font-style:normal;font-variant:normal;font-weight:normal;font-stretch:normal;font-size:10.58333302px;line-height:1.25;font-family:sans-serif;-inkscape-font-specification:'sans-serif, Normal';font-variant-ligatures:normal;font-variant-caps:normal;font-variant-numeric:normal;font-feature-settings:normal;text-align:start;letter-spacing:0px;word-spacing:0px;writing-mode:lr-tb;text-anchor:start;fill:#000000;fill-opacity:1;stroke:none;stroke-width:0.26458332"
       x="33.964886"
       y="275.02005"
       id="text3963-4-0-6-9"><tspan
         sodipodi:role="line"
         id="tspan3961-0-9-2-3"
         x="33.964886"
         y="275.02005"
         style="font-size:7.05555534px;stroke-width:0.26458332">Pando</tspan></text>
    <text
       xml:space="preserve"
       style="font-style:normal;font-variant:normal;font-weight:normal;font-stretch:normal;font-size:10.58333302px;line-height:1.25;font-family:sans-serif;-inkscape-font-specification:'sans-serif, Normal';font-variant-ligatures:normal;font-variant-caps:normal;font-variant-numeric:normal;font-feature-settings:normal;text-align:start;letter-spacing:0px;word-spacing:0px;writing-mode:lr-tb;text-anchor:start;fill:#000000;fill-opacity:1;stroke:none;stroke-width:0.26458332"
       x="75.393997"
       y="275.29477"
       id="text3963-4-0-6-9-8"><tspan
         sodipodi:role="line"
         id="tspan3961-0-9-2-3-6"
         x="75.393997"
         y="275.29477"
         style="font-size:7.05555534px;stroke-width:0.26458332">Cochabamba</tspan></text>
    <text
       xml:space="preserve"
       style="font-style:normal;font-variant:normal;font-weight:normal;font-stretch:normal;font-size:10.58333302px;line-height:1.25;font-family:sans-serif;-inkscape-font-specification:'sans-serif, Normal';font-variant-ligatures:normal;font-variant-caps:normal;font-variant-numeric:normal;font-feature-settings:normal;text-align:start;letter-spacing:0px;word-spacing:0px;writing-mode:lr-tb;text-anchor:start;fill:#000000;fill-opacity:1;stroke:none;stroke-width:0.26458332"
       x="146.21983"
       y="276.12677"
       id="text3963-4-0-6-9-8-1"
       inkscape:transform-center-x="10.8158"
       inkscape:transform-center-y="1.0399807"><tspan
         sodipodi:role="line"
         id="tspan3961-0-9-2-3-6-4"
         x="146.21983"
         y="276.12677"
         style="font-size:7.05555534px;stroke-width:0.26458332">Oruro</tspan></text>
    <text
       xml:space="preserve"
       style="font-style:normal;font-variant:normal;font-weight:normal;font-stretch:normal;font-size:10.58333302px;line-height:1.25;font-family:sans-serif;-inkscape-font-specification:'sans-serif, Normal';font-variant-ligatures:normal;font-variant-caps:normal;font-variant-numeric:normal;font-feature-settings:normal;text-align:start;letter-spacing:0px;word-spacing:0px;writing-mode:lr-tb;text-anchor:start;fill:#000000;fill-opacity:1;stroke:none;stroke-width:0.26458332"
       x="184.9071"
       y="274.67081"
       id="text3963-4-0-6-9-8-3"><tspan
         sodipodi:role="line"
         id="tspan3961-0-9-2-3-6-7"
         x="184.9071"
         y="274.67081"
         style="font-size:7.05555534px;stroke-width:0.26458332">Chuquisaca</tspan></text>
    <text
       xml:space="preserve"
       style="font-style:normal;font-variant:normal;font-weight:normal;font-stretch:normal;font-size:10.58333302px;line-height:1.25;font-family:sans-serif;-inkscape-font-specification:'sans-serif, Normal';font-variant-ligatures:normal;font-variant-caps:normal;font-variant-numeric:normal;font-feature-settings:normal;text-align:start;letter-spacing:0px;word-spacing:0px;writing-mode:lr-tb;text-anchor:start;fill:#000000;fill-opacity:1;stroke:none;stroke-width:0.26458332"
       x="244.18602"
       y="274.25479"
       id="text3963-4-0-6-9-8-6"><tspan
         sodipodi:role="line"
         id="tspan3961-0-9-2-3-6-9"
         x="244.18602"
         y="274.25479"
         style="font-size:7.05555534px;stroke-width:0.26458332">Tarija</tspan></text>
  </g>
</svg>
